<svg xmlns="http://www.w3.org/2000/svg" xmlns:xlink="http://www.w3.org/1999/xlink" viewBox="0 0 800 800"><defs><style>.cls-1,.cls-18,.cls-19,.cls-21,.cls-22,.cls-24,.cls-26,.cls-30{fill:none;}.cls-2{isolation:isolate;}.cls-3{fill:#cfecff;}.cls-4{clip-path:url(#clip-path);}.cls-5{fill:#2034aa;}.cls-6{fill:#0f267a;}.cls-7{fill:#18004d;}.cls-8{fill:#fe9393;}.cls-9{fill:#e15f60;}.cls-10{fill:#506aff;}.cls-11{fill:#fff;}.cls-12{fill:#e9edf2;}.cls-13{fill:#4262ea;}.cls-14{fill:#102772;}.cls-15{fill:#435fea;}.cls-16{fill:#3155ba;}.cls-17{fill:#264c9e;}.cls-18{stroke:#435fea;stroke-width:0.63px;}.cls-18,.cls-19,.cls-21,.cls-22,.cls-24,.cls-26{stroke-miterlimit:10;}.cls-19{stroke:#cfecff;stroke-width:0.3px;}.cls-19,.cls-21,.cls-22,.cls-24,.cls-26,.cls-30{stroke-linecap:round;}.cls-20{fill:#31216d;}.cls-21{stroke:#52a5e8;stroke-width:1.09px;}.cls-22,.cls-26,.cls-30{stroke:#fff;}.cls-22,.cls-24{stroke-width:0.97px;}.cls-23{fill:#3f49a5;}.cls-24{stroke:#3f49a5;}.cls-25{fill:#9dbeed;}.cls-26{stroke-width:0.97px;}.cls-27{fill:#b8e2f4;}.cls-28{fill:#aba6e2;}.cls-29{fill:#eb5d62;}.cls-30{stroke-linejoin:round;stroke-width:0.6px;}.cls-31{fill:#a1a1e5;opacity:0.63;mix-blend-mode:multiply;}</style><clipPath id="clip-path"><rect class="cls-1" x="75.76" y="203.29" width="633.52" height="415.37"/></clipPath></defs><title>service</title><g class="cls-2"><g id="圖層_1" data-name="圖層 1"><path class="cls-3" d="M93.54,619.2S47,563.36,119.47,482.92s25.74-132,84.9-225.06,208.31-104,274.73,5c18.13,29.75,81.77,105,126.31,127,36.11,17.79,120.69,31.07,123.29,138,.6,24.72-15.89,69.33-37.54,91.38Z"/><g class="cls-4"><path class="cls-5" d="M301,639.53H256l-1.53-3.67v0l-8.38-20.32V557.27h43.37S297.9,603.42,301,639.53Z"/><path class="cls-6" d="M254.45,635.84l-8.35-12.59,0-20.4,7.12-12.2S254.51,619.6,254.45,635.84Z"/><path class="cls-5" d="M195.17,552.81a88.77,88.77,0,0,0-7.65,26.39c-1.43,11.4,1.29,57.45,1.29,57.45l45.27,7.83s15.28-30,25.35-79.11c4.56-22.24-39.17-11.92-39.17-11.92"/><path class="cls-7" d="M284.41,297.2s1.1,9.64-2.14,16.52S275,299.14,275,299.14l2.19-7.75"/><path class="cls-8" d="M259.56,344.32s-.46,1.36-1.15,3.56c-.75,2.39-1.76,5.78-2.67,9.48-1.37,5.64-2.53,12-2.19,16.56,0,0-17.53,1.83-26.14-3.62,0,0,5.36-21-2.31-41.61Z"/><path class="cls-9" d="M258.41,347.88c-.75,2.39-1.76,5.78-2.67,9.48-15.21-4.92-23.87-18.55-23.87-18.55Z"/><path class="cls-8" d="M227.9,338.83c6.93,8,45.88,24.32,51.27,5s2.79-42.13,0-56.05c-1.72-8.63-6.33-25.06-29.36-22.52S197.52,303.55,227.9,338.83Z"/><path class="cls-7" d="M216.48,285.72s-18.69,1.76-22.17-10.16,9.83-27.12,21.57-20.85,10.49,21.66,10.49,21.66"/><path class="cls-10" d="M208.43,287.25s2-17.76,18.85-21L221,276.77Z"/><path class="cls-7" d="M276.32,282.8s-6.41,27.63-44.78,28.8c0,0-3.79-1.1-5.24,2.27a12.07,12.07,0,0,0-.17,8c2.37,7.4,3.87,15,2.64,22.69l.09.87s-19-2.39-24.21-29.78c-6-31.7,22.89-57.31,42.62-54.27C255.58,262.63,274.57,269.63,276.32,282.8Z"/><path class="cls-7" d="M264,282.18s12,16.44,21.25,16.9c0,0,3-22.4-9.73-31.49-17.33-12.41-37-5.91-37-5.91"/><path class="cls-8" d="M228.41,365.39a6.68,6.68,0,0,1-3.31,4.81c-4.66,3-12.57,6.1-16.66,7.74,0,0,36.61,26.3,63.65-1.71,0,0-9.78-3-12.51-5-6.56-4.73-5.28-7.08-5.28-7.08"/><path class="cls-8" d="M274.6,433.85s6.37,19.46,11.59,34a70.37,70.37,0,0,0,7.12,14.92c2.74,3.51,6.44,7.78,13,4.27s7.61-6.55,6.44-13.25c-1.22-6.94-12.39-46.36-12.39-46.36"/><path class="cls-8" d="M286.19,467.88s9.11,30.89,22.11,28c6.74-1.77,18.54-27.58,23.85-37.82,16.71-32.24,18-39.49,18-39.49l-8.43-3.92s-33.44,43-36.07,47"/><path class="cls-11" d="M289.45,557.28c-41.23,9.16-79.21,3.4-96.39.41-2-5.68.79-15,3-23.64,6.74-26.58,3.61-57.36,1.25-75.58-.93-7.32-1.77-12.6-1.77-14.8,0-1.74-.13-4-.31-6.59-1.23-15.8-5.33-44.11-5.67-47.87-.41-4.39,25-14.07,25-14.07s45.1,27.19,48-2.61a162.57,162.57,0,0,1,22.3,8.91c1.9,13,2.86,41.31,3.22,55.95.16,5.6-4.69,16.12-4.69,16.12s.72,44.05,3,76.19C287.2,541.35,290.05,552.79,289.45,557.28Z"/><path class="cls-12" d="M208.09,422.8s-.59,22.62-3.4,34.51a20.32,20.32,0,0,1-7.37,1.16c-.93-7.32-1.77-12.6-1.77-14.8,0-1.74-.13-4-.31-6.59Z"/><polygon class="cls-13" points="256.13 545.82 187.64 538.47 199.07 438.62 267.56 445.97 256.13 545.82"/><polygon class="cls-10" points="251.16 545.28 182.68 537.93 194.11 438.09 262.59 445.43 251.16 545.28"/><path class="cls-8" d="M176.61,431.87s-2.34,20.34-3.7,35.76a70,70,0,0,0,.23,16.53c1,4.34,2.59,9.76,10.06,9.34s9.65-2.77,11.38-9.34c1.8-6.82,8.15-47.3,8.15-47.3"/><path class="cls-8" d="M172.84,468.4s-2.82,22.83,4.79,30.05c5,3.2,16.1,4.05,27.58,5.17,36.14,3.52,43.36,2.06,43.36,2.06l.5-9.29s-52.32-15.05-57.08-16"/><path class="cls-8" d="M243.77,494.87a13.87,13.87,0,0,0,7.83-.08c1.9-.66,4.11-2.14,5.22-2.5s6.94.82,7.79,1.17-.06,1.8-.91,2.05a18.82,18.82,0,0,1-3.37.28l-2.16,1.91L257.7,509a11.49,11.49,0,0,1-4.45.53c-3.08-.08-5.69-3.08-11.9-3.52"/><path class="cls-8" d="M261.13,495.15s2.51,1,2.7,1.88-.71,10.28-2.22,11.41c-.92.69-6,1-6,1L255,506s-.12-7,0-7.22,3-2.56,3-2.56l3.12-1.06"/><path class="cls-8" d="M235.4,312.65s-1.16-8.5-8.81-5.71c-6,2.2-2,13.48.28,17.31s6.81,2.82,7.48-.05"/><path class="cls-11" d="M308.34,450.27s-12-64-23.46-68.84c1.07,7.28-9.34,25.12-8.55,38.22a179.81,179.81,0,0,0,6,35.74C299.06,454.66,308.34,450.27,308.34,450.27Z"/><path class="cls-11" d="M196.78,383.11s-17.95,7.34-23,33.94c-4.74,24.85-5.56,35.09-5.56,35.09s20.95,6.6,33.65,3.12c2.39-8.2,6.58-34.6,6.58-34.6"/><path class="cls-12" d="M277.67,404.11s5.95,12.94,9,21.81-3.21,27.58-3.21,27.58,6.8-12,5.95-24.7S277.67,404.11,277.67,404.11Z"/><path class="cls-8" d="M338.76,418.52s2.07-3.57,2.12-4.52c.22-4.52.24-16.95,2.72-21.48a2,2,0,0,1,2.46,1.54c.74,2-.89,5.75-.15,7.64s1.85,1.05,3.2,0a42,42,0,0,0,6-8.8c.75-2.41,1.94-5.08,2.46-5.07,1.39,0,1.15,2,1,3.7a25.87,25.87,0,0,1-.89,3.28,24.73,24.73,0,0,1-2.06,4.64s1-1.52,3-3.83c.64-1.42,1.3-2.52,2.09-4.45.66-2.4,1.87-2.75,2.39-2.26s.07,2.31-.75,5.17a18,18,0,0,1-2,4.36c-1.31,2-2.43,3.45-2.43,3.45s1.33-1.75,3-3.64a21.43,21.43,0,0,0,2.56-4.38c.28-3.06,1.92-4.14,2.33-3.6s.25,2.69-.22,4.92a12.46,12.46,0,0,1-1.67,4.28c-1.58,2.28-3.24,4.35-3.24,4.35s4.67-6.28,5.5-5.41c1.05,1.11-3.6,7.47-4.85,9.51s-4.76,6-6.53,6.81-5.74,7.35-6.24,8.78"/><path class="cls-8" d="M363.58,400.22s1.83-3.3,2.12-3.63,1.11-1.19,1.72-.62c.78.74-2,5.39-2,5.39"/><path class="cls-7" d="M274.26,285.18a27.6,27.6,0,0,1-4.52,12,29.56,29.56,0,0,1-9.35,8.87,36.6,36.6,0,0,1-12.15,4.37c-1.05.23-2.13.3-3.19.46s-2.15.16-3.22.24l-3.22,0L235.4,311a62.74,62.74,0,0,0,12.71-1.23,44.47,44.47,0,0,0,6.12-1.73,35.6,35.6,0,0,0,5.71-2.73,30.06,30.06,0,0,0,9.25-8.5,30.65,30.65,0,0,0,3.13-5.52A28.15,28.15,0,0,0,274.26,285.18Z"/><circle class="cls-11" cx="229.36" cy="323.94" r="1.82"/><path class="cls-9" d="M227.33,312.11a3,3,0,0,1,3.7,1.33c2,2.95,1.53,6.07-.77,5.63-1.27-.24-1.41-2-.84-3.07a1.58,1.58,0,0,1,1.85-.76S230.43,311.7,227.33,312.11Z"/><path class="cls-5" d="M564.85,635.38a135.27,135.27,0,0,1-1.47,13.74c-1.33,8-4.67,20.56-8.69,34.64-7,24.19-16.09,52.7-21.2,69.18,19.73,40.39-8.41,174.12-11.94,185.21-9.86,1.72-17.3.2-20.88-1.07-4.21-61.64-11.45-186.93-11.37-189.93,1.64-63.39,9.41-121.83,10-131.15s1.62-61.43,6.09-63.2c9.86-3.68,35.42-12.17,47,4.62C564.41,575,566.32,611.73,564.85,635.38Z"/><path class="cls-14" d="M564.85,635.38a135.27,135.27,0,0,1-1.47,13.74c-1.33,8-4.67,20.56-8.69,34.64-1.23-20-3.53-75.41-3.53-75.41Z"/><path class="cls-5" d="M604.28,946.16a29.41,29.41,0,0,1-21.77,1.5c1.17,2.78-26.43-139-29.67-167.27-.19-1.8-1-9.33-1.14-11.84-1.23-14.69.58-87.68.09-116.5l.92-92s-27.2-2.53-8.06.74c24.33,4.12,57-.91,57-.91,32.08,43.37,26.67,83.46,20.5,102.68a186.6,186.6,0,0,0-6,23.73c-5.34,29.63-19.36,67.7-22.75,87.55C623,843.65,606.86,924,604.28,946.16Z"/><path class="cls-8" d="M401.25,478.48l-14.13-3.37s-2.9-1.61-7.75-7.11-11.8-4.88-13.25-4.8-1.59,1.91,1,3.68c1.73,1.18,4.74.63,5.77,4.66.46,1.8-4.64,1.87-7.26,1s-11.54-5.13-13.83-6.08-4.2.5,1.76,4.87a77.76,77.76,0,0,0,9.5,6.11,27,27,0,0,0,2.1,3.72,2.62,2.62,0,0,0,1.06.7,24.82,24.82,0,0,0,2,3.46,1.92,1.92,0,0,0,.45.38c.54,1.14,1.06,2.25,1.54,3.2,1.84,3.71,9,2.67,12.12,2.27s16.61,2.63,16.61,2.63Z"/><path class="cls-8" d="M366.88,477.29a35,35,0,0,1-9-1.89c-5.29-1.76-12-5.52-13.41-5.68s-1.53,1.61,0,3a51.61,51.61,0,0,0,8.35,5.14c2.94,1.46,15.72,4.75,15.72,4.75"/><path class="cls-8" d="M368.72,481a35.23,35.23,0,0,1-9.16-.85C354.11,479,347,476,345.59,476s-1.34,1.77.34,3a52.06,52.06,0,0,0,8.89,4.16c3.07,1.12,16.15,4.35,16.15,4.35"/><path class="cls-8" d="M373.17,486.47a35.21,35.21,0,0,1-9.16-.85c-5.46-1.16-12.58-4.14-14-4.13s-1.34,1.77.34,3a52.7,52.7,0,0,0,8.88,4.16c3.08,1.12,16.15,2.94,16.15,2.94"/><path class="cls-15" d="M528.83,434.66c-8.61,21.35-29.72,55.81-29.72,55.81-13.67,1.18-32.09-5.34-32.09-5.34,2.38-25.9,25.73-95.95,25.73-95.95s1.41-11.05,31.39-18.88"/><path class="cls-15" d="M480.07,483.85l-83.56-7.36-3.06,17.31S456.62,518,480.23,518c19.32,0,34.63-54.88,34.63-54.88Z"/><path class="cls-16" d="M498.71,407.74s-4.19,63.43-6.08,103.09a78.27,78.27,0,0,0,9.09-13.93Z"/><path class="cls-15" d="M611.43,477.35c-1.39,7.42-3.77,19.73-6,32-.83,4.64-1.65,9.26-2.37,13.6-1.6,9.74-1.77,17.53-1.05,21.9,1.61,9.76,3.61,14,1.12,16.92-5.55,6.45-43.52,9.15-61.34,9.15-15.87,0-42.88-4.24-44.23-9.32-2.05-7.55.47-7.54,1.17-15.47s-3.85-155.61,2.39-162.77c7.36-6.12,19.08-12.06,30.83-15.94,8.33-1.37,22.47-.78,37.36,3.1,17.29,4.46,37.38,8.26,40.37,14.82C612.55,391.54,615.59,455.34,611.43,477.35Z"/><path class="cls-17" d="M605.47,509.33c-.83,4.64-1.65,9.26-2.37,13.6-29.68-12.06-79.66-37.88-81.18-38.68Z"/><path class="cls-16" d="M608.33,495.14l-8-44-8.92-16s1,16.92,2.45,36.86c-21-3-63.42-6.84-63.42-6.84s39.28,12.28,40.87,12.63c1.28.28,17.2,2.18,23.2,2.89.37,4.84.76,9.73,1.16,14.5Z"/><path class="cls-8" d="M498.71,459.92s-13.31,3.07-13.84,3.86-.06,3,4.35,3.16a19.23,19.23,0,0,0,8.7-2.1"/><path class="cls-8" d="M496.61,467.45l-8.17,5.73s-5.07,6.59-4.81,7,1.82,1,3.33-.4,4.52-4.25,4.52-4.25l7.87-3"/><path class="cls-8" d="M500,469.61l-8.17,5.74s-5.08,6.58-4.81,7,1.81,1,3.32-.4,4.52-4.25,4.52-4.25l7.87-3"/><path class="cls-8" d="M503.51,471.75l-8.17,5.73s-5.07,6.59-4.81,7,1.81,1,3.33-.4,4.51-4.25,4.51-4.25l7.87-3"/><path class="cls-8" d="M529.48,468.72l-13.84-7.11s-14.51-1.76-16.57-1.75-12.16,7.31-13.61,7.93S478,479.41,478,479.41a1.78,1.78,0,0,0,1.85,1c1.51,0,8.1-8,8.1-8l7.64-4.15a25,25,0,0,0,4.35,9.29c2.68,3.29,9.61,2,14.9,1.54a20.81,20.81,0,0,1,6.25.43"/><path class="cls-15" d="M645.87,506.56a23.11,23.11,0,0,0,.2-2.8c0-22.08-2.59-81.08-25.76-111.45-9-11.78-29.62-16.41-29.62-16.41l.44,54.78c.56,20.46,14.34,75.87,14.34,75.87h40.4Z"/><path class="cls-15" d="M520.82,471.84a34.77,34.77,0,0,0-1.65,11.68s88.19,37.25,113.17,39.82h0L631.4,483,525.28,464.21A21.38,21.38,0,0,0,520.82,471.84Z"/><path class="cls-15" d="M632.34,523.34s14.86,2.9,13.73-22.05c-1-22-20.66-16.16-20.66-16.16l-4.48,18.18Z"/><path class="cls-8" d="M569.38,370.44l0,0S552.58,383.13,532,367.4c0,0,2.61-5,3-5.87a45.13,45.13,0,0,0,4.79-12.39c.14-.41.2-.87.33-1.35a47.64,47.64,0,0,0,.86-5.91,50.14,50.14,0,0,0-.3-12.14l2-1.61,32.84-25.83,3.74-2.92s-1.08,6.28-2.57,15.47c-.83,5.22-1.81,11.33-2.79,17.79C572,345.74,570.15,360.08,569.38,370.44Z"/><path class="cls-9" d="M564.24,333.39l0,0c-4.7,6.83-15.32,20.46-29.18,28.1a45.13,45.13,0,0,0,4.79-12.39,30.56,30.56,0,0,1-6.05,1.17c.09-1.5.16-3.07.12-4.71l2.19-1.31,4.93-2.41,26-12.64S566,330.83,564.24,333.39Z"/><path class="cls-7" d="M512.41,279.75s-5.72,15.65,4.49,24.55l4.88-23.85Z"/><path class="cls-8" d="M569.61,326.75a71.45,71.45,0,0,1-5.37,6.64l0,0a61.43,61.43,0,0,1-10.67,9.21,45.19,45.19,0,0,1-13.72,6.5,30.56,30.56,0,0,1-6.05,1.17c-8.73.73-13.83-2.63-13.83-2.63-8.19-12.15-7.89-31.86-6-46.81.72-6.06,1.74-11.32,2.51-15,.72-3.33,1.28-5.32,1.28-5.32,0-.15,0-.25.08-.4,3.55-19.31,29.35-20,47.1-9.11a30.33,30.33,0,0,1,3,2.07,34.5,34.5,0,0,1,11.45,13.44c4.16,9.12,1.61,19.49-2.65,28.31l-.7,1.4A82.93,82.93,0,0,1,569.61,326.75Z"/><path class="cls-7" d="M570.67,269.57s-21,32.42-56.3,15.37c-10.3-5-12.61-40.06-3.56-33.05,18.56,14.37,33.16-13,51-3.76C567.52,251.09,573.15,258.31,570.67,269.57Z"/><path class="cls-7" d="M563.68,273.69s-12.23,63.65.69,34.42c0,0,3.28-8.15,9.21-7.41s1.16,22.65.35,31.92c0,0,13.57-9.7,18.56-38.57s-14.42-40.75-25.17-28.24Z"/><path class="cls-9" d="M572.42,305.25s-3.33.46-4,6.56,3.22,7.32,4,4.1-2.19-5.16-2.84-3.82C569.55,312.09,568.75,308.55,572.42,305.25Z"/><path class="cls-18" d="M509.25,301.64c.29-2,2.1-3.13,4.11-3.34,1.81-.19,8.09,1.12,9.64,1.81,2.37,1.06,3.8,3,2,7.78-1.1,3-3.36,6.52-9.59,5.43C510.24,312.42,508.44,307.19,509.25,301.64Z"/><path class="cls-18" d="M535.28,301.53c3-.08,9.54.57,12.12,1.58a5,5,0,0,1,3.29,5.9c-1.71,6.17-4,10-12.47,8.63-7-1.1-7.12-8.57-6.75-12.88A3.75,3.75,0,0,1,535.28,301.53Z"/><path class="cls-18" d="M525.83,305.25a6.36,6.36,0,0,1,5.52.65"/><path class="cls-18" d="M550.81,308.38s12-1.32,15.74-2"/><path class="cls-8" d="M564,309a17.83,17.83,0,0,1,4.86-6.92l-.27,4Z"/><path class="cls-7" d="M473.35,485.13H337a3.29,3.29,0,0,1-3.24-2.7l-18.27-98a4.55,4.55,0,0,1,4.47-5.38h129.9a4.55,4.55,0,0,1,4.47,3.71Z"/><path class="cls-7" d="M515.25,485.13H450.44v-5.54h62.07a4,4,0,0,1,3.49,2l.64,1.11A1.61,1.61,0,0,1,515.25,485.13Z"/><path class="cls-19" d="M447.61,383.57a2.69,2.69,0,0,1,2.64,2.18L468,476.16"/><path class="cls-20" d="M397.18,433.12c0,4-4.33,7.21-9.66,7.21s-9.67-3.23-9.67-7.21,4.33-7.2,9.67-7.2S397.18,429.14,397.18,433.12Z"/></g><line class="cls-21" x1="71.28" y1="618.66" x2="709.28" y2="618.66"/><line class="cls-22" x1="387.43" y1="218.35" x2="395.64" y2="218.35"/><line class="cls-22" x1="391.54" y1="214.25" x2="391.54" y2="222.46"/><line class="cls-22" x1="449.49" y1="526.53" x2="457.69" y2="526.53"/><line class="cls-22" x1="453.59" y1="522.42" x2="453.59" y2="530.63"/><path class="cls-11" d="M465.22,279a3.77,3.77,0,1,1-3.76-3.76A3.76,3.76,0,0,1,465.22,279Z"/><path class="cls-11" d="M339,355.82a3.77,3.77,0,1,1-3.77-3.77A3.76,3.76,0,0,1,339,355.82Z"/><path class="cls-11" d="M293.17,218.35a3.76,3.76,0,1,1-3.76-3.76A3.76,3.76,0,0,1,293.17,218.35Z"/><path class="cls-3" d="M667.6,324.06a3.77,3.77,0,1,1-3.76-3.77A3.76,3.76,0,0,1,667.6,324.06Z"/><path class="cls-3" d="M596.44,349.79a3.77,3.77,0,1,1-3.77-3.76A3.77,3.77,0,0,1,596.44,349.79Z"/><path class="cls-3" d="M436.12,184.57a3.77,3.77,0,1,1-3.76-3.77A3.76,3.76,0,0,1,436.12,184.57Z"/><path class="cls-23" d="M711,477.18a3.76,3.76,0,1,1-3.76-3.76A3.76,3.76,0,0,1,711,477.18Z"/><path class="cls-11" d="M349.94,595.4a3.77,3.77,0,1,1-3.77-3.77A3.76,3.76,0,0,1,349.94,595.4Z"/><path class="cls-3" d="M115,470.38a3.77,3.77,0,1,1-3.76-3.76A3.77,3.77,0,0,1,115,470.38Z"/><line class="cls-24" x1="526.21" y1="192.51" x2="534.42" y2="192.51"/><line class="cls-24" x1="530.31" y1="188.41" x2="530.31" y2="196.62"/><line class="cls-24" x1="659.73" y1="274.86" x2="667.94" y2="274.86"/><line class="cls-24" x1="663.84" y1="270.75" x2="663.84" y2="278.96"/><line class="cls-24" x1="672.77" y1="576.39" x2="680.97" y2="576.39"/><line class="cls-24" x1="676.87" y1="572.29" x2="676.87" y2="580.5"/><line class="cls-22" x1="104.06" y1="569.59" x2="112.27" y2="569.59"/><line class="cls-22" x1="108.17" y1="565.49" x2="108.17" y2="573.7"/><path class="cls-25" d="M183.43,296.74H118.66a6.39,6.39,0,0,0-6.39,6.39v17.09a6.39,6.39,0,0,0,6.39,6.39h50.25l9.28,9.28v-9.28h5.24a6.39,6.39,0,0,0,6.39-6.39V303.13A6.39,6.39,0,0,0,183.43,296.74Z"/><line class="cls-26" x1="121.95" y1="304.89" x2="171.6" y2="304.89"/><line class="cls-26" x1="121.95" y1="311.68" x2="179.29" y2="311.68"/><line class="cls-26" x1="121.95" y1="318.46" x2="142.51" y2="318.46"/><path class="cls-25" d="M490.08,306.89H425.31a6.39,6.39,0,0,0-6.39,6.39v17.08a6.39,6.39,0,0,0,6.39,6.39h50.25l9.28,9.28v-9.28h5.24a6.39,6.39,0,0,0,6.39-6.39V313.28A6.39,6.39,0,0,0,490.08,306.89Z"/><line class="cls-26" x1="428.59" y1="315.03" x2="478.24" y2="315.03"/><line class="cls-26" x1="428.59" y1="321.82" x2="458.82" y2="321.82"/><line class="cls-26" x1="463.13" y1="321.82" x2="485.94" y2="321.82"/><line class="cls-26" x1="428.59" y1="328.61" x2="449.15" y2="328.61"/><path class="cls-27" d="M383.65,282.7a38.92,38.92,0,0,1-1.92,12.18,39.43,39.43,0,0,1-67.92,12.93h0a39.42,39.42,0,1,1,69.84-25.1Z"/><path class="cls-25" d="M387.54,281.5a42.6,42.6,0,0,1-2.12,13.38L344.24,281.5V238.2A43.31,43.31,0,0,1,387.54,281.5Z"/><path class="cls-11" d="M344.24,281.51l-14.08,45.74a46.78,46.78,0,0,1-21.81-14.72v0Z"/><rect class="cls-25" x="376.54" y="544.55" width="11.44" height="52.23"/><rect class="cls-25" x="394.93" y="552.93" width="11.44" height="43.86"/><rect class="cls-25" x="358.32" y="560.08" width="11.44" height="36.71"/><rect class="cls-25" x="413.31" y="537.61" width="11.44" height="59.18"/><path class="cls-25" d="M364.09,555.7a2.86,2.86,0,0,0,2.85-2.85,2.73,2.73,0,0,0-.3-1.24l14.1-13.6a2.81,2.81,0,0,0,3.57-.43l13.53,8.08a3,3,0,0,0,0,.42,2.85,2.85,0,1,0,5.69,0,2.78,2.78,0,0,0-.37-1.37L417.94,527a2.84,2.84,0,1,0-1.75-2.62,2.82,2.82,0,0,0,.45,1.52l-14.75,17.6a2.77,2.77,0,0,0-1.24-.3,2.81,2.81,0,0,0-2,.88L385.06,536a3,3,0,0,0,.05-.42,2.85,2.85,0,1,0-5.69,0,2.78,2.78,0,0,0,.22,1.08l-14.18,13.67a2.84,2.84,0,1,0-1.37,5.33Z"/><path class="cls-11" d="M155.64,534.77v-6.16h-2.58a16.18,16.18,0,0,0-2.48-6l1.82-1.82L148,516.44l-1.82,1.82a15.9,15.9,0,0,0-6-2.48V513.2h-6.16v2.58a16.16,16.16,0,0,0-6,2.47l-1.82-1.81-4.35,4.35,1.82,1.82a16,16,0,0,0-2.48,6h-2.58v6.16h2.58a15.9,15.9,0,0,0,2.48,6l-1.82,1.82,4.35,4.36,1.83-1.82a16,16,0,0,0,6,2.47v2.59h6.16v-2.59a16,16,0,0,0,6-2.47l1.82,1.82,4.36-4.36-1.82-1.82a16.13,16.13,0,0,0,2.48-6ZM137.15,542a10.3,10.3,0,1,1,10.29-10.3A10.3,10.3,0,0,1,137.15,542Z"/><path class="cls-11" d="M174.88,550.68v-4.13h-1.73a10.85,10.85,0,0,0-1.65-4l1.22-1.22-2.92-2.92-1.22,1.22a10.86,10.86,0,0,0-4-1.66v-1.72h-4.13V538a10.7,10.7,0,0,0-4,1.66l-1.22-1.22-2.91,2.92,1.21,1.22a10.85,10.85,0,0,0-1.65,4h-1.73v4.13h1.73a10.85,10.85,0,0,0,1.65,4l-1.21,1.22,2.91,2.91,1.22-1.22a10.7,10.7,0,0,0,4,1.66V561h4.13v-1.73a10.7,10.7,0,0,0,4-1.66l1.22,1.22,2.92-2.91-1.22-1.22a10.85,10.85,0,0,0,1.65-4Zm-12.38,4.83a6.9,6.9,0,1,1,6.89-6.9A6.89,6.89,0,0,1,162.5,555.51Z"/><rect class="cls-11" x="657.89" y="521.84" width="36.32" height="24.75"/><path class="cls-28" d="M657.89,546.6c2.94-2.61,5.92-5.15,8.91-7.69s6-5,9-7.54l.22-.18.22.18,4.52,3.76c1.5,1.26,3,2.5,4.51,3.78,3,2.54,6,5.08,8.91,7.69-3.11-2.39-6.18-4.83-9.24-7.28-1.54-1.22-3.05-2.47-4.58-3.71l-4.56-3.71h.44c-3,2.47-6.07,5-9.13,7.42S661,544.21,657.89,546.6Z"/><polyline class="cls-11" points="657.89 521.84 676.05 536.81 694.21 521.84"/><path class="cls-28" d="M657.89,521.84c3.12,2.39,6.19,4.83,9.25,7.28s6.08,5,9.13,7.43h-.44l4.56-3.72c1.53-1.24,3-2.49,4.58-3.71,3.06-2.45,6.13-4.89,9.24-7.28-2.93,2.61-5.92,5.15-8.91,7.69-1.49,1.28-3,2.52-4.51,3.78l-4.52,3.76-.22.19-.22-.19c-3-2.51-6-5-9-7.54S660.83,524.45,657.89,521.84Z"/><path class="cls-29" d="M690.06,521.3a4.84,4.84,0,1,1-4.83-4.84A4.83,4.83,0,0,1,690.06,521.3Z"/><polyline class="cls-30" points="682.49 520.94 684.65 523.43 687.98 519.72"/><path class="cls-3" d="M609.26,289.23a18.62,18.62,0,1,1,4.93,4.51l-8.75,4.86Z"/><path class="cls-29" d="M631.12,279a3.12,3.12,0,1,0,3.11-3.12A3.11,3.11,0,0,0,631.12,279Z"/><path class="cls-29" d="M621,279a3.12,3.12,0,1,0,3.12-3.12A3.12,3.12,0,0,0,621,279Z"/><path class="cls-29" d="M610.8,279a3.12,3.12,0,1,0,3.12-3.12A3.12,3.12,0,0,0,610.8,279Z"/><path class="cls-3" d="M667.38,347a20.84,20.84,0,1,0,2.77,20.94h0A20.85,20.85,0,0,0,667.38,347Zm-16.46,25.17a12.36,12.36,0,1,1,9.67-20.07,12.23,12.23,0,0,1,2.7,7.71,12.08,12.08,0,0,1-.92,4.67A12.35,12.35,0,0,1,650.92,372.12Z"/><path class="cls-25" d="M667.38,347l-6.79,5.1a12.3,12.3,0,0,0-9.67-4.65v-8.49A20.83,20.83,0,0,1,667.38,347Z"/><path class="cls-31" d="M670.15,367.88h0a20.87,20.87,0,0,1-36.52,3.53l7-4.86a12.37,12.37,0,0,0,21.78-2.13Z"/></g></g></svg>