<svg xmlns="http://www.w3.org/2000/svg" xmlns:xlink="http://www.w3.org/1999/xlink" viewBox="0 0 800 800"><defs><style>.cls-1{isolation:isolate;}.cls-2{fill:#fcd370;}.cls-11,.cls-12,.cls-20,.cls-21,.cls-24,.cls-27,.cls-29,.cls-3,.cls-35,.cls-37,.cls-39,.cls-40,.cls-43,.cls-44,.cls-46,.cls-52,.cls-53,.cls-55,.cls-57,.cls-58,.cls-61,.cls-62{opacity:0.3;mix-blend-mode:multiply;}.cls-3{fill:url(#linear-gradient);}.cls-4{fill:#fff;}.cls-5{fill:#5ec778;}.cls-6{fill:url(#linear-gradient-2);}.cls-7{fill:url(#linear-gradient-3);}.cls-8{fill:url(#linear-gradient-4);}.cls-13,.cls-15,.cls-23,.cls-25,.cls-32,.cls-33,.cls-42,.cls-47,.cls-48,.cls-50,.cls-56,.cls-63,.cls-9{fill:none;}.cls-42,.cls-9{stroke:#343947;}.cls-23,.cls-25,.cls-33,.cls-42,.cls-47,.cls-48,.cls-50,.cls-56,.cls-9{stroke-miterlimit:10;}.cls-9{stroke-width:0.48px;}.cls-10{fill:url(#linear-gradient-5);}.cls-11{fill:url(#linear-gradient-6);}.cls-12{fill:url(#linear-gradient-7);}.cls-13{stroke:#a1a1a1;stroke-width:0.5px;}.cls-13,.cls-15,.cls-32,.cls-63{stroke-linecap:round;stroke-linejoin:round;}.cls-14{fill:url(#linear-gradient-8);}.cls-15{stroke:#fff;stroke-width:0.97px;}.cls-16{fill:#636363;}.cls-17{fill:#343947;}.cls-18{fill:#ff005d;}.cls-19{fill:#1a4b59;}.cls-20{fill:url(#linear-gradient-9);}.cls-21{fill:url(#linear-gradient-10);}.cls-22{fill:#277085;}.cls-23,.cls-63{stroke:#2e849e;stroke-width:0.48px;}.cls-24{fill:url(#linear-gradient-11);}.cls-25{stroke:#73002a;}.cls-25,.cls-32,.cls-33,.cls-42,.cls-48,.cls-50,.cls-56{stroke-width:0.35px;}.cls-26{fill:#ff9c87;}.cls-27{fill:url(#linear-gradient-12);}.cls-28{fill:url(#linear-gradient-13);}.cls-30{fill:url(#linear-gradient-14);}.cls-31{fill:#d17e6f;}.cls-32,.cls-33{stroke:#1a4b59;}.cls-34{fill:url(#linear-gradient-15);}.cls-35{fill:url(#linear-gradient-16);}.cls-36{fill:#d17f00;}.cls-37{fill:url(#linear-gradient-17);}.cls-38{fill:#804e00;}.cls-39{fill:url(#linear-gradient-18);}.cls-40{fill:url(#linear-gradient-19);}.cls-41{fill:#a66500;}.cls-43{fill:url(#linear-gradient-20);}.cls-44{fill:url(#linear-gradient-21);}.cls-45{fill:#6b9cff;}.cls-46{fill:url(#linear-gradient-22);}.cls-47{stroke:#276f85;stroke-width:0.34px;}.cls-48{stroke:#bababa;}.cls-49{fill:#f9ca47;}.cls-50{stroke:#6b9cff;}.cls-51{fill:#276f85;}.cls-52{fill:url(#linear-gradient-23);}.cls-53{fill:url(#linear-gradient-24);}.cls-54{fill:#5683df;}.cls-55{fill:url(#linear-gradient-25);}.cls-56{stroke:#3358cc;}.cls-57{fill:url(#linear-gradient-26);}.cls-58{fill:url(#linear-gradient-27);}.cls-59{fill:url(#linear-gradient-28);}.cls-60{fill:url(#linear-gradient-29);}.cls-61{fill:url(#linear-gradient-30);}.cls-62{fill:url(#linear-gradient-31);}</style><linearGradient id="linear-gradient" x1="291.58" y1="317.08" x2="291.58" y2="369.98" gradientTransform="translate(581.09 -1.76) rotate(80.75)" gradientUnits="userSpaceOnUse"><stop offset="0" stop-color="#fff"/><stop offset="0.12" stop-color="#dadada"/><stop offset="0.45" stop-color="#7e7e7e"/><stop offset="0.71" stop-color="#3a3a3a"/><stop offset="0.9" stop-color="#101010"/><stop offset="1"/></linearGradient><linearGradient id="linear-gradient-2" x1="335.84" y1="182.91" x2="335.84" y2="231.65" gradientUnits="userSpaceOnUse"><stop offset="0" stop-color="#ffe4a1"/><stop offset="1" stop-color="#ffe4a1" stop-opacity="0"/></linearGradient><linearGradient id="linear-gradient-3" x1="194.64" y1="264.91" x2="194.64" y2="313.65" xlink:href="#linear-gradient-2"/><linearGradient id="linear-gradient-4" x1="595.55" y1="461.81" x2="595.55" y2="647.28" gradientUnits="userSpaceOnUse"><stop offset="0" stop-color="#5a9e70"/><stop offset="1" stop-color="#ffca44"/></linearGradient><linearGradient id="linear-gradient-5" x1="206.52" y1="481.72" x2="206.52" y2="625.06" xlink:href="#linear-gradient-4"/><linearGradient id="linear-gradient-6" x1="620.67" y1="270.32" x2="620.67" y2="336.79" gradientTransform="translate(308.94 -312.88) rotate(37.1)" xlink:href="#linear-gradient"/><linearGradient id="linear-gradient-7" x1="385.39" y1="201.25" x2="385.39" y2="320.71" gradientUnits="userSpaceOnUse"><stop offset="0" stop-color="#fff"/><stop offset="0.13" stop-color="#fbfbfb"/><stop offset="0.26" stop-color="#f0f0f0"/><stop offset="0.38" stop-color="#dcdcdc"/><stop offset="0.51" stop-color="#c1c1c1"/><stop offset="0.63" stop-color="#9e9e9e"/><stop offset="0.75" stop-color="#737373"/><stop offset="0.87" stop-color="#414141"/><stop offset="0.99" stop-color="#070707"/><stop offset="1"/></linearGradient><linearGradient id="linear-gradient-8" x1="476.67" y1="206.6" x2="476.67" y2="249.62" xlink:href="#linear-gradient-2"/><linearGradient id="linear-gradient-9" x1="386.12" y1="484.91" x2="378.56" y2="502.61" gradientTransform="matrix(1, 0, 0, 1, 0, 0)" xlink:href="#linear-gradient"/><linearGradient id="linear-gradient-10" x1="342.28" y1="405.57" x2="342.28" y2="469.82" gradientTransform="matrix(1, 0, 0, 1, 0, 0)" xlink:href="#linear-gradient"/><linearGradient id="linear-gradient-11" x1="423.69" y1="501.33" x2="354.54" y2="478.65" gradientTransform="matrix(1, 0, 0, 1, 0, 0)" xlink:href="#linear-gradient"/><linearGradient id="linear-gradient-12" x1="345.2" y1="455.94" x2="366.1" y2="455.94" gradientTransform="matrix(1, 0, 0, 1, 0, 0)" xlink:href="#linear-gradient"/><linearGradient id="linear-gradient-13" x1="396.56" y1="473.24" x2="396.56" y2="440.41" gradientUnits="userSpaceOnUse"><stop offset="0" stop-color="#6b9cff"/><stop offset="0.04" stop-color="#76a3ff"/><stop offset="0.19" stop-color="#a0bfff"/><stop offset="0.34" stop-color="#c2d6ff"/><stop offset="0.5" stop-color="#dde8ff"/><stop offset="0.66" stop-color="#f0f5ff"/><stop offset="0.83" stop-color="#fbfcff"/><stop offset="1" stop-color="#fff"/></linearGradient><linearGradient id="linear-gradient-14" x1="368.28" y1="415.53" x2="368.28" y2="462.54" gradientTransform="matrix(1, 0, 0, 1, 0, 0)" xlink:href="#linear-gradient"/><linearGradient id="linear-gradient-15" x1="342.83" y1="388.9" x2="343.15" y2="388.9" gradientTransform="matrix(1, 0, 0, 1, 0, 0)" xlink:href="#linear-gradient"/><linearGradient id="linear-gradient-16" x1="343.89" y1="403.82" x2="352.25" y2="390.19" gradientTransform="matrix(1, 0, 0, 1, 0, 0)" xlink:href="#linear-gradient"/><linearGradient id="linear-gradient-17" x1="444.95" y1="413.62" x2="478.58" y2="413.62" gradientTransform="matrix(1, 0, 0, 1, 0, 0)" xlink:href="#linear-gradient"/><linearGradient id="linear-gradient-18" x1="583.09" y1="443" x2="583.09" y2="422.8" gradientTransform="matrix(1, 0, 0, 1, 0, 0)" xlink:href="#linear-gradient"/><linearGradient id="linear-gradient-19" x1="474.6" y1="435.07" x2="474.6" y2="416.23" gradientTransform="matrix(1, 0, 0, 1, 0, 0)" xlink:href="#linear-gradient"/><linearGradient id="linear-gradient-20" x1="293.68" y1="465.13" x2="327.31" y2="465.13" gradientTransform="matrix(1, 0, 0, 1, 0, 0)" xlink:href="#linear-gradient"/><linearGradient id="linear-gradient-21" x1="394.62" y1="485.32" x2="394.62" y2="465.9" gradientTransform="matrix(1, 0, 0, 1, 0, 0)" xlink:href="#linear-gradient"/><linearGradient id="linear-gradient-22" x1="498.91" y1="407.87" x2="498.91" y2="396.39" gradientTransform="matrix(1, 0, 0, 1, 0, 0)" xlink:href="#linear-gradient"/><linearGradient id="linear-gradient-23" x1="576.69" y1="555.91" x2="549.77" y2="463.34" gradientTransform="matrix(1, 0, 0, 1, 0, 0)" xlink:href="#linear-gradient"/><linearGradient id="linear-gradient-24" x1="562.11" y1="435.7" x2="560.31" y2="421.87" gradientTransform="matrix(1, 0, 0, 1, 0, 0)" xlink:href="#linear-gradient"/><linearGradient id="linear-gradient-25" x1="601.71" y1="394.65" x2="574.6" y2="400.92" gradientTransform="matrix(1, 0, 0, 1, 0, 0)" xlink:href="#linear-gradient"/><linearGradient id="linear-gradient-26" x1="566.13" y1="328.64" x2="555.02" y2="345.37" gradientTransform="matrix(1, 0, 0, 1, 0, 0)" xlink:href="#linear-gradient"/><linearGradient id="linear-gradient-27" x1="294.25" y1="356.09" x2="283.14" y2="358.85" gradientTransform="matrix(1, 0, 0, 1, 0, 0)" xlink:href="#linear-gradient"/><linearGradient id="linear-gradient-28" x1="236.33" y1="522.94" x2="236.33" y2="496.48" gradientTransform="matrix(1, 0, 0, 1, 0, 0)" xlink:href="#linear-gradient"/><linearGradient id="linear-gradient-29" x1="196.49" y1="522.94" x2="196.49" y2="496.48" gradientTransform="matrix(1, 0, 0, 1, 0, 0)" xlink:href="#linear-gradient"/><linearGradient id="linear-gradient-30" x1="221.19" y1="412.16" x2="221.19" y2="396.52" gradientTransform="matrix(1, 0, 0, 1, 0, 0)" xlink:href="#linear-gradient"/><linearGradient id="linear-gradient-31" x1="226.22" y1="348.23" x2="225.67" y2="334.4" gradientTransform="matrix(1, 0, 0, 1, 0, 0)" xlink:href="#linear-gradient"/></defs><title>service</title><g class="cls-1"><g id="圖層_1" data-name="圖層 1"><path class="cls-2" d="M72.32,379.85c-4.45,57.07-49,130.76-15.84,190.4C91.63,633.55,172.4,637.07,227.23,638s81.77,44.23,178,47.85S507.76,647,569.14,647.9,691.92,644,707.27,556.11s18-125.06,36.11-175.09c33.79-93.47-6.91-157.31-62.34-167.64C601.16,198.49,563.1,191.81,507.84,150c-48.1-36.39-113.8-50.88-174.27-16.57S217.71,214.74,179,223.6C116.61,237.87,81,268,72.32,379.85Z"/><circle class="cls-3" cx="291.58" cy="340.82" r="25.2" transform="translate(-91.68 573.81) rotate(-80.75)"/><circle class="cls-4" cx="288.15" cy="339.22" r="25.2"/><path class="cls-5" d="M288.15,346.9a2,2,0,1,1,2-2A2,2,0,0,1,288.15,346.9Z"/><path class="cls-5" d="M288.15,337.76a7.18,7.18,0,0,0-6.08,3.42c-.07.12-.09.25-.15.36l2.26,2.33a3.84,3.84,0,0,1,.46-1.13,4.08,4.08,0,0,1,7.48,1.13l2.26-2.33c-.06-.11-.08-.23-.15-.34A7.15,7.15,0,0,0,288.15,337.76Z"/><path class="cls-5" d="M288.15,332.28a12.51,12.51,0,0,0-9.84,4.75c-.12.14-.21.31-.32.46l2.13,2.19c.17-.26.33-.54.53-.79a9.58,9.58,0,0,1,15,0c.19.25.35.52.52.78l2.13-2.19c-.11-.15-.19-.31-.31-.45A12.52,12.52,0,0,0,288.15,332.28Z"/><path class="cls-5" d="M288.15,327a17.87,17.87,0,0,0-13.51,6.17c-.14.15-.23.34-.37.5l2.11,2.18c.18-.24.33-.5.52-.72a14.88,14.88,0,0,1,22.49,0c.19.23.34.49.52.73l2.11-2.18c-.13-.16-.23-.35-.37-.51A17.86,17.86,0,0,0,288.15,327Z"/><path class="cls-6" d="M359.58,188.33l-22.21-29.1a1.91,1.91,0,0,0-3.05,0l-22.22,29.1a1.92,1.92,0,0,0,1.53,3.08h6.14a1.92,1.92,0,0,1,1.92,1.92V261a1.92,1.92,0,0,0,1.92,1.92h24.47A1.92,1.92,0,0,0,350,261V193.33a1.92,1.92,0,0,1,1.92-1.92h6.14A1.91,1.91,0,0,0,359.58,188.33Z"/><path class="cls-7" d="M218.38,270.33l-22.22-29.1a1.91,1.91,0,0,0-3,0l-22.21,29.1a1.92,1.92,0,0,0,1.52,3.08h6.14a1.92,1.92,0,0,1,1.92,1.92V343a1.92,1.92,0,0,0,1.92,1.92h24.48A1.92,1.92,0,0,0,208.8,343V275.33a1.92,1.92,0,0,1,1.92-1.92h6.13A1.92,1.92,0,0,0,218.38,270.33Z"/><path class="cls-8" d="M517.37,583h143s19.8-42.88,12.11-56.12c-4.75-8.2-19.24-4.42-20.26-20.38s11.21-68.71-7.13-70.41-33.23,63.66-45.42,64.31-17.48-28.88-30.18-28.2-18.76,53.7-26.85,55.7-16.76-2.38-22.2,7.13S517.37,583,517.37,583Z"/><path class="cls-9" d="M639,459S629,529.58,609.64,583"/><path class="cls-9" d="M658.05,532.89s-5.26,28.48-17.43,50.06"/><path class="cls-9" d="M570.64,490s1.22,55.6,8.1,92.93"/><path class="cls-9" d="M532.2,543.68S535,568,539.66,583"/><path class="cls-10" d="M101.92,583H316.57s-7.05-15.7-14.39-27.93-18.22-7.47-24.33-19-8.49-22.59-19.87-23.69-30.24,13.5-41.31,0S198,446,177,446s-20,80.84-31.93,81.52-24.76-20.67-38.41-15.2C87,520.18,101.92,583,101.92,583Z"/><line class="cls-9" x1="180.09" y1="476.08" x2="191.15" y2="582.95"/><line class="cls-9" x1="116.66" y1="531.33" x2="141.36" y2="582.95"/><line class="cls-9" x1="253.85" y1="526.9" x2="237.37" y2="582.95"/><line class="cls-9" x1="55.44" y1="582.95" x2="728.12" y2="582.95"/><path class="cls-4" d="M646,386.13c-7.84,2.65-10,4.8-12.64,12.64-2.65-7.84-4.79-10-12.64-12.64,7.85-2.65,10-4.79,12.64-12.64C636,381.34,638.11,383.48,646,386.13Z"/><circle class="cls-4" cx="644.1" cy="413.62" r="5.16"/><path class="cls-4" d="M657.93,352.08c-4.29,1.45-5.46,2.63-6.91,6.92-1.45-4.29-2.62-5.47-6.92-6.92,4.3-1.45,5.47-2.62,6.92-6.91C652.47,349.46,653.64,350.63,657.93,352.08Z"/><path class="cls-4" d="M502.68,314c-4.3,1.45-5.47,2.63-6.92,6.92-1.45-4.29-2.62-5.47-6.91-6.92,4.29-1.44,5.46-2.62,6.91-6.91C497.21,311.39,498.38,312.57,502.68,314Z"/><circle class="cls-11" cx="620.67" cy="303.9" r="25.84" transform="translate(-57.68 435.9) rotate(-37.1)"/><circle class="cls-4" cx="618.26" cy="301.47" r="25.84" transform="translate(141.59 797.38) rotate(-72.13)"/><path class="cls-5" d="M615.87,303.59a.66.66,0,0,0-1.19.1l-1,2.63a6.07,6.07,0,0,1,1.21-8.71,1.12,1.12,0,0,0,.29-1.41l-1.49-2.9a1.07,1.07,0,0,0-1.5-.45,11.53,11.53,0,0,0-.6,19l-1.09,2.87a.66.66,0,0,0,.82.87l8.74-2.81a.86.86,0,0,0,.48-1.26Z"/><path class="cls-5" d="M624.92,291.12l1.09-2.87a.66.66,0,0,0-.82-.86l-8.74,2.81a.86.86,0,0,0-.48,1.26l4.68,7.9a.67.67,0,0,0,1.19-.11l1-2.63a6.07,6.07,0,0,1-1.32,8.79,1,1,0,0,0-.4,1.31l1.46,3.06a1.06,1.06,0,0,0,1.48.48,11.53,11.53,0,0,0,.87-19.14Z"/><path class="cls-4" d="M596.16,328.88a1.88,1.88,0,1,1-.14-2.65A1.87,1.87,0,0,1,596.16,328.88Z"/><path class="cls-4" d="M591,334.62a1.88,1.88,0,1,1-.13-2.65A1.87,1.87,0,0,1,591,334.62Z"/><path class="cls-4" d="M585.78,340.35a1.88,1.88,0,1,1-.13-2.65A1.88,1.88,0,0,1,585.78,340.35Z"/><path class="cls-4" d="M478.42,237.4h-.93a52.36,52.36,0,0,0-95.93-29,32.67,32.67,0,0,0-15.48-4A33.06,33.06,0,0,0,333,237.4h-2.79a26.18,26.18,0,0,0,0,52.36H478.42a26.18,26.18,0,1,0,0-52.36Z"/><path class="cls-12" d="M334.31,281a21,21,0,0,0-12.57,7.33,26,26,0,0,0,8.5,1.44H449a21,21,0,0,0-15-8.95,25.4,25.4,0,0,0-25-21.06,24.34,24.34,0,0,0-8.37,1.49A37.59,37.59,0,0,0,334.31,281Z"/><path class="cls-4" d="M337.92,285.11h.59a33.16,33.16,0,0,1,60.76-18.39,20.72,20.72,0,0,1,9.81-2.55A20.94,20.94,0,0,1,430,285.11h1.77a16.58,16.58,0,1,1,0,33.16H337.92a16.58,16.58,0,0,1,0-33.16Z"/><path class="cls-13" d="M412.72,264.49A20.94,20.94,0,0,1,430,285.11h1.77a16.52,16.52,0,0,1,7.52,1.8"/><path class="cls-13" d="M405.83,264.44a20.36,20.36,0,0,1,3.25-.27c.47,0,.95,0,1.42.05"/><path class="cls-13" d="M400.75,266c.52-.23,1.05-.44,1.6-.64"/><path class="cls-13" d="M346.62,263.38a33.15,33.15,0,0,1,52.65,3.34"/><path class="cls-13" d="M339,279.27a33,33,0,0,1,5.06-12.57"/><path class="cls-13" d="M338.51,285.11c0-.76,0-1.51.08-2.25"/><path class="cls-14" d="M497.62,211.39,478,185.7a1.69,1.69,0,0,0-2.69,0l-19.6,25.69a1.69,1.69,0,0,0,1.34,2.72h5.42a1.69,1.69,0,0,1,1.69,1.69v59.73a1.7,1.7,0,0,0,1.7,1.69h21.6a1.69,1.69,0,0,0,1.69-1.69V215.8a1.7,1.7,0,0,1,1.7-1.69h5.41A1.7,1.7,0,0,0,497.62,211.39Z"/><path class="cls-15" d="M227,301.24v-28.9a9.41,9.41,0,0,1,9.41-9.41h56.91"/><path class="cls-15" d="M563.6,297.14v-24.8a9.41,9.41,0,0,0-9.41-9.41H514.4"/><path class="cls-16" d="M297.06,262.93a3.76,3.76,0,1,1-3.75-3.76A3.75,3.75,0,0,1,297.06,262.93Z"/><path class="cls-16" d="M518.16,262.93a3.76,3.76,0,1,1-3.76-3.76A3.75,3.75,0,0,1,518.16,262.93Z"/><path class="cls-16" d="M567.35,297.14a3.76,3.76,0,1,1-3.75-3.75A3.75,3.75,0,0,1,567.35,297.14Z"/><path class="cls-16" d="M230.74,301.24a3.76,3.76,0,1,1-3.75-3.75A3.75,3.75,0,0,1,230.74,301.24Z"/><line class="cls-15" x1="391.92" y1="331.68" x2="391.92" y2="397.85"/><path class="cls-16" d="M395.67,331.37a3.76,3.76,0,1,1-3.75-3.76A3.75,3.75,0,0,1,395.67,331.37Z"/><path class="cls-16" d="M395.67,397.85a3.76,3.76,0,1,1-3.75-3.76A3.75,3.75,0,0,1,395.67,397.85Z"/><path class="cls-4" d="M378.68,562.62a118.54,118.54,0,0,0-.3,18.7,3.29,3.29,0,0,0,2.79,3c1.78.26,4.4.6,7.44.87,5.74.51,15.16,3.69,19.75,2.55s-3.83-10.45-9.17-12.42c0,0-5.91-9.11-6.71-12.67Z"/><polygon class="cls-17" points="318.07 582.95 314.35 582.95 334.31 512.31 343.04 512.31 318.07 582.95"/><polygon class="cls-17" points="408.54 582.95 412.25 582.95 392.29 512.31 383.57 512.31 408.54 582.95"/><path class="cls-4" d="M407.67,561.64a72.45,72.45,0,0,0-3.53,11.8,3.17,3.17,0,0,0,1.67,3.48,49.74,49.74,0,0,0,9.09,3.45c6.22,1.64,14.57,6.55,17.1,4.83s-2-8.1-7.57-11.6l-4.78-11Z"/><path class="cls-18" d="M359.67,402.38c7.51,3.37,14.47,11,19.9,22.22s17.66,38.29,17.66,38.29H383.48Z"/><path class="cls-19" d="M417.87,499l-11.18,11.14a34.32,34.32,0,0,1-24.24,10H348.39A32.72,32.72,0,0,1,316.81,496L302.72,441.6A32.46,32.46,0,0,1,334.15,401h10.42a17.2,17.2,0,0,1,16.67,12.94l21.9,85.39Z"/><path class="cls-20" d="M390,499.26l-49.84,4.82s13.3,7.61,65.45,7.07c.36-.33.74-.64,1.09-1L417.87,499Z"/><path class="cls-21" d="M374.37,465.13l-13.13-51.2A17.2,17.2,0,0,0,344.57,401H334.15a32.11,32.11,0,0,0-15.85,4.17,32.26,32.26,0,0,0-7.06,29.52l7.88,30.45Z"/><path class="cls-22" d="M375.75,502.37h34.9s-3.57,8.16-2.55,14.27,1.79,11.46,0,15-3.56,6.88-2.8,13-4.08,19.61-4.08,19.61h22.42s7.11-36.12,10.33-59a20,20,0,0,0-12.53-21.46c-10-3.84-25.54-7.76-47.47-7.76H355.63Z"/><path class="cls-23" d="M380.55,489.23l34.54,5.51a5.18,5.18,0,0,1,4.3,5.9l-9.71,62.87"/><path class="cls-24" d="M412.57,480.92a143,143,0,0,0-38.6-4.84H355.63l20.12,26.29h19.31C395.8,496.4,399.08,486,412.57,480.92Z"/><path class="cls-22" d="M327.31,476.65s-1.45,27.51,15.73,27.76,21.76,0,21.76,0,0,12.48,1.78,20.38,4.84,7.64,4.33,15a55.76,55.76,0,0,0,.06,11.46c.2,3.31,4.53,8.92,2.49,13h24.45S389,507.21,386.45,495.5s-13-17.58-22.93-18.85S327.31,476.65,327.31,476.65Z"/><path class="cls-18" d="M318.18,408.63s11.81-8.81,24.07-8.91a56.45,56.45,0,0,1,17.42,2.66,12.63,12.63,0,0,1,8.06,7.84l18.59,52.67H337.67Z"/><line class="cls-25" x1="367.73" y1="410.22" x2="373.29" y2="425.99"/><path class="cls-18" d="M318.18,408.63c5.06-3.14,12.23,4.21,14.65,11.21S342,447.73,342,447.73s11.39,2,31.3,13.21h-38a10.07,10.07,0,0,1-9.14-5.83c-3.36-7.26-8.77-19.56-10.23-26.35C313.72,418.7,314.36,411,318.18,408.63Z"/><path class="cls-25" d="M326.25,410.23a22.63,22.63,0,0,1,6.58,9.61c2.42,7,9.17,27.89,9.17,27.89a40.5,40.5,0,0,1,4.2,1.08"/><path class="cls-26" d="M373.3,460.94a141.13,141.13,0,0,0-25.43-11.61c-3.43,1.18-8.16,4.16-9.66,11.61Z"/><path class="cls-27" d="M356.31,460.94h17a154.81,154.81,0,0,0-20.91-10Z"/><path class="cls-28" d="M425.81,460.84H359.36l8.51-34.71a6.28,6.28,0,0,1,6.09-4.78H427.5a6.27,6.27,0,0,1,6.09,7.77Z"/><g class="cls-29"><path class="cls-30" d="M377.21,421.35H374a6.28,6.28,0,0,0-6.09,4.78l-8.51,34.71h3.24l8.52-34.71A6.27,6.27,0,0,1,377.21,421.35Z"/></g><path class="cls-17" d="M405.34,442.2a8.53,8.53,0,0,1-7.8,6.3c-3.46,0-5.57-2.82-4.71-6.3a8.52,8.52,0,0,1,7.8-6.3C404.08,435.9,406.19,438.72,405.34,442.2Z"/><path class="cls-4" d="M363.11,380.11c3.9.38,9.87-1.84,10.17-7.65s-6.34-11.32-18-9.94-17.89,6-16.21,13c0,0-5.12,3.44-1.91,12.23,0,0-3.26,2.19,3.34,7.45Z"/><path class="cls-31" d="M365.11,380.08l-2,11.34-2.44-.38s-1,5.58-2.47,7.65-6.33.84-6.33.84v3.85a2.24,2.24,0,0,1-2.29,2.26c-3.27-.1-9-.53-10.48-5.92l4-10.51s-3.74-6.49.77-7.5c2.17-.48,2.14,3.14,2.14,3.14s3.06-1.15,4.36-5.59a13.87,13.87,0,0,0,7.78-1.07A22,22,0,0,0,365.11,380.08Z"/><line class="cls-32" x1="345.66" y1="382.72" x2="356.49" y2="384.43"/><path class="cls-33" d="M361.49,385.4a2.54,2.54,0,1,1-1.87-3.27A2.67,2.67,0,0,1,361.49,385.4Z"/><path class="cls-33" d="M366,386.34c-.29,1.37-1.14,2.34-1.88,2.18s-1.09-1.4-.79-2.77,1.13-2.34,1.87-2.18S366.31,385,366,386.34Z"/><path class="cls-33" d="M361.53,385.2s1.25-.45,1.87.3"/><path class="cls-34" d="M343.15,389.21a6.18,6.18,0,0,0-.32-.62C343,389,343.15,389.21,343.15,389.21Z"/><path class="cls-35" d="M356.07,399.77c-3.12-.89-6.22-1.58-9.4-4.58s-3.52-6-3.52-6l-1,2.7c1,5.24,5.59,11.66,9.63,12.11a2.21,2.21,0,0,0,.13-.64v-3.85A12.31,12.31,0,0,0,356.07,399.77Z"/><path class="cls-23" d="M330.83,473.9s-.18,14.81,9.32,17.27c6.44,1.66,18.13,2.36,25,2.63a6.77,6.77,0,0,1,6.39,5.53l12.06,64.94"/><rect class="cls-17" x="303.92" y="564.27" width="5.77" height="21.48"/><rect class="cls-17" x="337.26" y="564.27" width="5.77" height="21.48"/><rect class="cls-17" x="303.92" y="564.27" width="5.77" height="21.48"/><rect class="cls-17" x="337.26" y="564.27" width="5.77" height="21.48"/><rect class="cls-17" x="563.67" y="564.27" width="5.77" height="21.48"/><rect class="cls-17" x="597.01" y="564.27" width="5.77" height="21.48"/><rect class="cls-17" x="455.18" y="564.27" width="5.77" height="21.48"/><rect class="cls-17" x="488.53" y="564.27" width="5.77" height="21.48"/><rect class="cls-36" x="444.95" y="409.43" width="167.78" height="8.38"/><rect class="cls-37" x="444.95" y="409.43" width="33.62" height="8.38"/><rect class="cls-38" x="302.18" y="469.31" width="33.62" height="97.61"/><rect class="cls-36" x="335.8" y="469.31" width="8.69" height="97.61" transform="translate(680.3 1036.23) rotate(180)"/><rect class="cls-38" x="561.93" y="417.8" width="33.62" height="149.12"/><rect class="cls-36" x="595.55" y="417.8" width="8.69" height="149.12" transform="translate(1199.79 984.73) rotate(180)"/><rect class="cls-39" x="561.93" y="417.8" width="42.32" height="9.17"/><rect class="cls-38" x="453.44" y="417.8" width="33.62" height="149.12"/><rect class="cls-36" x="487.07" y="417.8" width="8.69" height="149.12" transform="translate(982.83 984.73) rotate(180)"/><rect class="cls-40" x="453.44" y="417.8" width="42.32" height="9.17"/><rect class="cls-41" x="495.76" y="417.8" width="93.8" height="33.37"/><rect class="cls-41" x="344.49" y="469.31" width="142.57" height="21.85"/><line class="cls-42" x1="444.95" y1="417.8" x2="612.73" y2="417.8"/><line class="cls-42" x1="495.76" y1="420.5" x2="495.76" y2="451.17"/><rect class="cls-36" x="293.68" y="460.94" width="193.39" height="8.38"/><rect class="cls-43" x="293.68" y="460.94" width="33.62" height="8.38"/><line class="cls-42" x1="487.07" y1="469.31" x2="487.07" y2="566.92"/><line class="cls-42" x1="293.68" y1="469.31" x2="490.15" y2="469.31"/><rect class="cls-44" x="302.18" y="469.31" width="184.89" height="9.17"/><line class="cls-42" x1="335.8" y1="469.31" x2="335.8" y2="530.68"/><rect class="cls-45" x="491.47" y="394.54" width="14.89" height="14.89"/><polygon class="cls-46" points="506.36 403.88 491.47 399.72 491.47 394.54 506.36 394.54 506.36 403.88"/><rect class="cls-45" x="454.59" y="337.99" width="88.65" height="59.27" rx="1.25"/><rect class="cls-4" x="459.87" y="343.51" width="78.09" height="48.22" rx="0.37"/><line class="cls-47" x1="461.67" y1="349.28" x2="536.16" y2="349.28"/><line class="cls-48" x1="481.42" y1="352.13" x2="481.42" y2="389.4"/><path class="cls-49" d="M466.29,355a1.15,1.15,0,1,1-1.15-1.14A1.15,1.15,0,0,1,466.29,355Z"/><line class="cls-50" x1="468.64" y1="355.01" x2="476.67" y2="355.01"/><path class="cls-49" d="M466.29,363.46a1.15,1.15,0,1,1-1.15-1.14A1.16,1.16,0,0,1,466.29,363.46Z"/><line class="cls-50" x1="468.64" y1="363.46" x2="476.67" y2="363.46"/><path class="cls-49" d="M466.29,371.91a1.15,1.15,0,1,1-1.15-1.15A1.16,1.16,0,0,1,466.29,371.91Z"/><line class="cls-50" x1="468.64" y1="371.91" x2="476.67" y2="371.91"/><path class="cls-49" d="M466.29,380.36a1.15,1.15,0,1,1-1.15-1.15A1.15,1.15,0,0,1,466.29,380.36Z"/><line class="cls-50" x1="468.64" y1="380.36" x2="476.67" y2="380.36"/><rect class="cls-49" x="487.49" y="353.87" width="7.39" height="5.48" rx="0.4"/><rect class="cls-49" x="500.27" y="353.87" width="7.39" height="5.48" rx="0.4"/><rect class="cls-49" x="513.05" y="353.87" width="7.39" height="5.48" rx="0.4"/><line class="cls-50" x1="487.49" y1="367.62" x2="519.8" y2="367.62"/><line class="cls-50" x1="487.49" y1="371.91" x2="519.8" y2="371.91"/><line class="cls-50" x1="487.49" y1="376.2" x2="519.8" y2="376.2"/><line class="cls-50" x1="487.49" y1="380.49" x2="519.8" y2="380.49"/><line class="cls-42" x1="465.14" y1="346.57" x2="468.07" y2="346.57"/><line class="cls-42" x1="472.21" y1="346.57" x2="475.14" y2="346.57"/><line class="cls-42" x1="479.28" y1="346.57" x2="482.21" y2="346.57"/><path class="cls-4" d="M546.17,562.75s3.23,17,3.06,23H517.9s-1.87-2.38,0-4.16,7.38-.85,11.38-4.17,4.92-4,4.58-7.21-1.1-7.47-1.1-7.47Z"/><path class="cls-19" d="M549.23,585.76A89.11,89.11,0,0,0,547.92,573a16.34,16.34,0,0,0-9.75,2.94,6.15,6.15,0,0,0-4.3-3.94c-.23,1.86-1.47,2.85-4.59,5.44-4,3.32-9.51,2.38-11.38,4.17s0,4.16,0,4.16Z"/><path class="cls-4" d="M584.88,562.75s3.23,17,3.06,23H556.61s-1.87-2.38,0-4.16,7.39-.85,11.38-4.17,4.92-4,4.58-7.21-1.1-7.47-1.1-7.47Z"/><path class="cls-19" d="M587.94,585.76A89.11,89.11,0,0,0,586.63,573a16.34,16.34,0,0,0-9.75,2.94,6.15,6.15,0,0,0-4.3-3.94c-.23,1.86-1.46,2.85-4.59,5.44-4,3.32-9.51,2.38-11.38,4.17s0,4.16,0,4.16Z"/><path class="cls-51" d="M536.24,422.39s-10.36,64.7-10.11,80.24,1.28,39.48,2,45.85,0,13.5-.76,15.79h22.41a21.13,21.13,0,0,0,0-11.71c-.76-2.93-3.05-6-1.78-12.49a33.6,33.6,0,0,0,.25-13.75c-.63-4.59-3.31-7-2.54-11.08s.12-12.87-1.4-16.3c0,0,10.06-22.89,14.3-43.61a635.74,635.74,0,0,0,9,110.22h21.91s-5.35-9.17-5.35-15.29,1-14.77.26-20.88-3.52-6.88-3.06-13.25a48.13,48.13,0,0,0-3.31-20.63s5.35-26.5,6.37-40.51,6.62-19.1,1-31.58Z"/><path class="cls-23" d="M542.78,425.45s-1.34,10.52-9,13.07"/><path class="cls-23" d="M544.3,434.7H561s-2.12,5.77-8.36,5.77S544.3,434.7,544.3,434.7Z"/><path class="cls-23" d="M587.91,434.7H574.57s2.12,5.77,8.36,5.77a8.61,8.61,0,0,0,4.39-1.15"/><path class="cls-23" d="M568.42,443.28A18.44,18.44,0,0,1,559,453.89"/><path class="cls-52" d="M589.56,565.55s-5.35-9.17-5.35-15.29c0-2.42.16-5.24.31-8.15l-25.87-86.78a635.74,635.74,0,0,0,9,110.22Z"/><path class="cls-23" d="M537.36,436.42S530,494,530.46,501.1s3.61,63.17,3.61,63.17"/><path class="cls-53" d="M585.49,423.41l-49.25-1s-.45,2.81-1.16,7.37L587.81,436A23.64,23.64,0,0,0,585.49,423.41Z"/><path class="cls-26" d="M505.16,409.31H492.32s0-2.21,11.82-7.47Z"/><path class="cls-54" d="M587.18,352.08c7.18,5.27,15.78,35.84,17.65,45.52s-5.76,11.79-16,11.79c0,0-5.77-25.72-5.94-39.14S587.18,352.08,587.18,352.08Z"/><path class="cls-55" d="M588.88,409.39c6.17,0,11.38-.79,14.13-3.54C592.53,405,591.94,384,591.94,384l-6.52,7.76C587.05,401.23,588.88,409.39,588.88,409.39Z"/><path class="cls-17" d="M570.14,337c-.46-2.57,4.79-6,5.25-13.53s-2.86-11.87-8.29-14.07-11-1.39-14.44-6.26-6.26-4.51-6.9-2.3,1.74,6.25,1.74,6.25-5.7-4.5-7.91-1.19,1.66,7.82,1.66,7.82-4.42-3.31-5.62-.92-.44,9.81,13.62,12.79c3,.65,13.07,10.77,15.83,11.41A11.1,11.1,0,0,0,570.14,337Z"/><path class="cls-26" d="M570.14,337c-1.66-1-4.17-4.06-5.4-5.51,3.32-1.17,3.18-7.79-.12-7.92-2-.08-2.48,1.91-2.56,3.71a38.89,38.89,0,0,1-2.87-8.31c-8.65,1.65-13.34.73-13.34.73a62.1,62.1,0,0,1,.18,6.63c-.18,1.47-2.3,2.11-2.3,2.85S547,330,547,330s.65,3.86,1.57,7.45c.55,2.16,5.89,1.11,5.89,1.11l2.57,9.2h14.91Z"/><path class="cls-54" d="M537,358.7c.82,11.89,1.79,37.89-2.81,62.16a4.58,4.58,0,0,0,4.52,5.43h45.1a5.2,5.2,0,0,0,5.09-4.1,154.31,154.31,0,0,0-1.68-70.11s-16.51-11.83-44.11-2.57A9,9,0,0,0,537,358.7Z"/><path class="cls-56" d="M588.86,422.19a155.29,155.29,0,0,0,.86-58.73"/><path class="cls-54" d="M516.37,396.41s15.28-47,26.7-46.9c16.56.1-6.83,47.07-11.08,54s-17.49,5.77-26.83,5.77c0,0-2.89-1.36-1-7.47Z"/><path class="cls-56" d="M546.62,369.94a178.48,178.48,0,0,1-10.46,25.73"/><path class="cls-57" d="M564.74,331.48,550,338.6a12.52,12.52,0,0,0,4.45,0l1.24,4.43a11,11,0,0,0,5,1.08c4.51-.46,9.45-7.08,9.45-7.08C568.48,336,566,332.93,564.74,331.48Z"/><path class="cls-26" d="M283.2,362.88s6.05-1.46,6.86-3.1,0-6.12,0-6.12l-7.4,3.15Z"/><path class="cls-58" d="M283.4,356.5c.35,1.72.6,3,.6,3s1.12,1.46,4.66,1.48a3.28,3.28,0,0,0,1.4-1.17c.82-1.63,0-6.12,0-6.12Z"/><rect class="cls-22" x="283.67" y="349.25" width="8.16" height="10.48" rx="0.86"/><path class="cls-17" d="M231.32,310.18c7.79,1.33,11.61,9.56,10.18,19.75a12.22,12.22,0,0,0-.11,2.7,22,22,0,0,1-.5,6.93,15.06,15.06,0,0,0,.19,7.57c.64,2.41,1,5.34,0,7.42-2,4.16-39.82,1.69-39.82,1.69A16.21,16.21,0,0,1,199.82,346c1.19-5.52,6.11-7.22,7.39-15.79S212.64,307,231.32,310.18Z"/><path class="cls-26" d="M234.32,348.16a15.35,15.35,0,0,1,10.59,6.92c2.8,4.21,15.49,17.95,15.49,17.95l20.92-14.44s.31-4.38,3.68-6.63c1.34-.9.51,1.59-.31,2.48a24.3,24.3,0,0,1-.71,6.69c-.89,3.5-15.53,24.32-24,24.32s-25.75-24.2-25.75-24.2Z"/><path class="cls-26" d="M243,498.64c0,.47,2.89,55.9,3.34,64.51a8.69,8.69,0,0,0,.39,2.21l2.8,9.1a9,9,0,0,0,2,3.43c2.27,2.51,6.59,7.36,6.46,7.87-.17.67-9.68-.34-12.06-1.87s-8-8.88-8-8.88v10.75h-2s-5.09-11.38,1.36-22.25A93.55,93.55,0,0,0,234.89,544c-2.38-9.68-8-30.06-4.93-45.34Z"/><path class="cls-18" d="M237.94,585.76V575s5.61,7.35,8,8.88,11.89,2.54,12.06,1.87c.13-.51-4.19-5.36-6.46-7.87a9,9,0,0,1-2-3.43l-.61-2c-9.82,1.22-6.79-5.32-11.7-9-6.45,10.87-1.36,22.25-1.36,22.25Z"/><path class="cls-26" d="M205.61,498.81c-.14.45-13.4,54.34-15.47,62.72a9.23,9.23,0,0,0-.26,2.22l.05,9.52a9.19,9.19,0,0,0,.87,3.86c1.45,3,4.18,9,3.92,9.4-.36.6-9.17-3.13-11-5.28s-5.08-10.8-5.08-10.8l-3.11,10.28-1.95-.59s-1.58-12.37,7.74-20.9a93.09,93.09,0,0,0,3.37-19.38c.53-10,1.06-31.09,8.4-44.83Z"/><path class="cls-18" d="M175.53,580.73l3.11-10.28s3.24,8.65,5.08,10.8,10.64,5.88,11,5.28c.26-.45-2.47-6.35-3.92-9.4a9.19,9.19,0,0,1-.87-3.86v-2.06c-9.75-1.68-5-7.06-8.6-12-9.32,8.53-7.74,20.9-7.74,20.9Z"/><g class="cls-29"><path class="cls-59" d="M243,498.64H230a54.74,54.74,0,0,0-.84,12.48,65.28,65.28,0,0,0,14.46-1.82C243.25,503,243,498.77,243,498.64Z"/><path class="cls-60" d="M193.09,495a62.9,62.9,0,0,0-5.73,17.5c.88.15,1.81.28,2.84.36l6.15.16c1.85,0,3.8-.11,5.79-.21,2-8.06,3.43-13.88,3.47-14Z"/></g><path class="cls-51" d="M237.08,402.69c-7.23-4.93-28.15,0-28.15,0-19.34,14.69-12.25,35.49-17.86,68.61-2.38,14.07-7.89,33.62-7.89,33.62,1.43,1,3.91,1.51,7,1.76l4.44-9.4,1.71,9.55c10.57-.14,24.34-1.91,32.17-1.91a63.64,63.64,0,0,0,21.65-3.82C246.09,442.51,237.08,402.69,237.08,402.69Z"/><path class="cls-23" d="M212.6,400.5s-9.43,11.52-11.77,30.8c-2,16.2-4.36,53.32-6.19,66"/><path class="cls-61" d="M238,407.17c-.6-2.92-.95-4.48-.95-4.48-7.23-4.93-28.15,0-28.15,0a36.72,36.72,0,0,0-4.57,4.08A148.68,148.68,0,0,0,238,407.17Z"/><path class="cls-4" d="M237.08,402.69a90.4,90.4,0,0,1-28.15,0c-.1-3.87-.19-7.75-.29-11.62h28.73C237.27,394.94,237.18,398.82,237.08,402.69Z"/><path class="cls-54" d="M203.81,349.92a114.52,114.52,0,0,1,15-2.55,76.61,76.61,0,0,1,14.73.64,5.14,5.14,0,0,1,4.31,3.73,33.75,33.75,0,0,0,2.61,6.71c2.29,4.2,3.69,8.54,1.91,15.54-1.27,5-2.6,12.65-3.26,16.68a3.2,3.2,0,0,1-3.17,2.68H208.88c-1.6,0-2.66-1.24-3.18-2.75C203.17,383.26,201.94,361.43,203.81,349.92Z"/><path class="cls-26" d="M203.81,349.92c5.19-1.12,6.2,9,5.43,13.54s-5,21.06-5,21.06L220.11,374s2-4.5,4.16-5.94,7.13-3.82,7.47-3-4.67,3.66-4.67,3.66,5-1.79,5.44-.51-1.7,4.5-3.4,5.6-4.24,5.77-6.71,4.84c0,0-17.66,24.2-26.91,19.7C187.33,394.39,198.72,351,203.81,349.92Z"/><path class="cls-26" d="M232.25,319.65a14.26,14.26,0,0,0,4.84,7.81s-.93,9.59-1.44,12.57-5,4-6.79,3.56v4.59s-6.8,1.61-12-.34V342a12.74,12.74,0,0,0,3.06-7.75c.17-4.73,2.13-5.36,4.93-7A19.34,19.34,0,0,0,232.25,319.65Z"/><path class="cls-62" d="M234.17,342.25c-8.35.41-12.43-2.57-14.35-6.87a13.11,13.11,0,0,1-2.07,5.48c5,8.75,11.11,6,11.11,6v-3.31A7.45,7.45,0,0,0,234.17,342.25Z"/><path class="cls-63" d="M213.84,348c2.95,3.57,16.24,4.8,17.25-.24"/></g></g></svg>