<svg xmlns="http://www.w3.org/2000/svg" xmlns:xlink="http://www.w3.org/1999/xlink" viewBox="0 0 800 800"><defs><style>.cls-1{isolation:isolate;}.cls-2{fill:#d7defa;}.cls-15,.cls-18,.cls-19,.cls-20,.cls-27,.cls-28,.cls-3,.cls-36,.cls-40,.cls-41,.cls-42,.cls-46,.cls-5,.cls-50,.cls-7{fill:none;}.cls-15,.cls-18,.cls-3,.cls-40,.cls-42,.cls-5,.cls-50,.cls-7{stroke:#fff;}.cls-20,.cls-3{stroke-linecap:round;}.cls-20,.cls-3,.cls-42{stroke-linejoin:round;}.cls-3{stroke-width:0.75px;}.cls-4{fill:#b6d4ca;}.cls-15,.cls-18,.cls-19,.cls-21,.cls-27,.cls-28,.cls-36,.cls-40,.cls-41,.cls-46,.cls-5,.cls-50,.cls-7{stroke-miterlimit:10;}.cls-5{stroke-width:0.48px;}.cls-6{fill:url(#linear-gradient);}.cls-7{stroke-width:0.38px;}.cls-8{fill:url(#linear-gradient-2);}.cls-9{fill:#c1ccfa;}.cls-10,.cls-21,.cls-49{fill:#fff;}.cls-11{fill:#0d3cfa;}.cls-12{fill:#061c73;}.cls-13{fill:#738efa;}.cls-14{fill:#ffccd4;}.cls-15,.cls-27,.cls-28,.cls-36{stroke-width:0.25px;}.cls-16,.cls-23,.cls-29,.cls-31,.cls-34,.cls-35,.cls-38,.cls-43,.cls-48{opacity:0.46;mix-blend-mode:multiply;}.cls-16{fill:url(#linear-gradient-3);}.cls-17{fill:#ff2b4f;}.cls-19,.cls-36{stroke:#0d3cfa;}.cls-19{stroke-width:0.43px;}.cls-20,.cls-21{stroke:#061c73;}.cls-20{stroke-width:0.65px;}.cls-21{stroke-width:0.5px;}.cls-22{fill:#ff9caf;}.cls-23{fill:url(#linear-gradient-4);}.cls-24{fill:#f80;}.cls-25{fill:url(#linear-gradient-5);}.cls-26{fill:url(#linear-gradient-6);}.cls-27,.cls-46{stroke:#bd6400;}.cls-28{stroke:#d7defa;}.cls-29{fill:url(#linear-gradient-7);}.cls-30{fill:#ff5773;}.cls-31{fill:url(#linear-gradient-8);}.cls-32{fill:url(#linear-gradient-9);}.cls-33{fill:url(#linear-gradient-10);}.cls-34{fill:url(#linear-gradient-11);}.cls-35{fill:url(#linear-gradient-12);}.cls-37{fill:#c4213d;}.cls-38{fill:url(#linear-gradient-13);}.cls-39{fill:#f5e52f;}.cls-40{stroke-width:0.39px;}.cls-41{stroke:#ff5773;stroke-width:0.33px;}.cls-42{stroke-width:0.73px;}.cls-43{fill:url(#linear-gradient-14);}.cls-44{fill:#bd6400;}.cls-45{opacity:0.38;}.cls-46{stroke-width:0.31px;}.cls-47{fill:#859cfa;}.cls-48{fill:url(#linear-gradient-15);}.cls-49{opacity:0.57;}.cls-50{stroke-width:0.2px;}.cls-51{fill:#ffdc8a;}</style><linearGradient id="linear-gradient" x1="643.12" y1="610.8" x2="666.84" y2="542.26" gradientUnits="userSpaceOnUse"><stop offset="0.12" stop-color="#19916e"/><stop offset="1" stop-color="#0aab94"/></linearGradient><linearGradient id="linear-gradient-2" x1="153.69" y1="598.78" x2="115.02" y2="452.55" xlink:href="#linear-gradient"/><linearGradient id="linear-gradient-3" x1="333.14" y1="361.03" x2="333.14" y2="475.67" gradientUnits="userSpaceOnUse"><stop offset="0" stop-color="#c5c5c5"/><stop offset="1" stop-color="#5b5b5a"/></linearGradient><linearGradient id="linear-gradient-4" x1="417.91" y1="506.39" x2="417.91" y2="483.42" xlink:href="#linear-gradient-3"/><linearGradient id="linear-gradient-5" x1="417.2" y1="415.25" x2="418.33" y2="425.2" gradientUnits="userSpaceOnUse"><stop offset="0.04" stop-color="#ff5773"/><stop offset="1" stop-color="#ff5773" stop-opacity="0"/></linearGradient><linearGradient id="linear-gradient-6" x1="430.94" y1="500.06" x2="430.94" y2="475.8" gradientUnits="userSpaceOnUse"><stop offset="0" stop-color="#d7defa"/><stop offset="1" stop-color="#fff"/></linearGradient><linearGradient id="linear-gradient-7" x1="465.14" y1="376.74" x2="465.14" y2="421.84" xlink:href="#linear-gradient-3"/><linearGradient id="linear-gradient-8" x1="221.73" y1="518.68" x2="240.7" y2="518.68" xlink:href="#linear-gradient-3"/><linearGradient id="linear-gradient-9" x1="214.79" y1="472.29" x2="211.1" y2="481.34" xlink:href="#linear-gradient-5"/><linearGradient id="linear-gradient-10" x1="207.62" y1="469.36" x2="203.93" y2="478.42" xlink:href="#linear-gradient-5"/><linearGradient id="linear-gradient-11" x1="175.05" y1="515.98" x2="226.01" y2="515.98" xlink:href="#linear-gradient-3"/><linearGradient id="linear-gradient-12" x1="206.37" y1="563.23" x2="264.99" y2="563.23" xlink:href="#linear-gradient-3"/><linearGradient id="linear-gradient-13" x1="98.96" y1="409.45" x2="195.92" y2="409.45" xlink:href="#linear-gradient-3"/><linearGradient id="linear-gradient-14" x1="507.19" y1="567.9" x2="507.19" y2="511.71" xlink:href="#linear-gradient-3"/><linearGradient id="linear-gradient-15" x1="574.37" y1="567.49" x2="593.5" y2="520.94" gradientTransform="translate(26.82 11.61) rotate(3.24)" xlink:href="#linear-gradient-3"/></defs><title>service</title><g class="cls-1"><g id="圖層_1" data-name="圖層 1"><path class="cls-2" d="M456,620.57c-99.78,22.78-200.85,17.8-292.27-14.43-106.26-37.46-162-154-124.58-260.22s154-162,260.22-124.58c18,6.36,42,6.89,65.8,1.47s45.16-16.32,58.64-29.89c79.48-79.84,208.64-80.19,288.51-.72s80.18,208.64.72,288.51C644.7,549.42,555.82,597.79,456,620.57Z"/><path class="cls-3" d="M577.76,305.14c-15.73-20.3-42.71-29-74.11-28.26C453.48,278,366.37,315.75,316.9,306.65S273.29,253.2,304,238.74c30.26-14.24,85.4,8.74,85.4,8.74"/><path class="cls-4" d="M64.74,634.07s60.71-141.29,116.64-143.48S302.47,569.7,351,547.71,493.59,415,568.82,415c114.57,0,138.12,219.06,138.12,219.06Z"/><path class="cls-5" d="M662.45,499.19l16.95-6.27a66.88,66.88,0,0,0-8-21.54l-16.95,6.27a48.38,48.38,0,0,0-10.22-11l7.54-16.4a62.87,62.87,0,0,0-20.87-9.6L623.39,457a48.14,48.14,0,0,0-15-.57l-6.27-17a66.88,66.88,0,0,0-21.54,8l6.27,17a48.11,48.11,0,0,0-11,10.21l-16.4-7.54a62.87,62.87,0,0,0-9.6,20.87l16.41,7.54a48.14,48.14,0,0,0-.57,15l-17,6.28a66.91,66.91,0,0,0,8,21.53l17-6.27a48.11,48.11,0,0,0,10.21,11l-7.54,16.4a62.87,62.87,0,0,0,20.87,9.6l7.54-16.4a48.75,48.75,0,0,0,15,.57l6.28,17a66.91,66.91,0,0,0,21.53-8l-6.27-17a48.38,48.38,0,0,0,11-10.22l16.4,7.54a62.87,62.87,0,0,0,9.6-20.87l-16.4-7.54A48.75,48.75,0,0,0,662.45,499.19Z"/><circle class="cls-5" cx="614.03" cy="504.86" r="16.85" transform="translate(-180.17 538.94) rotate(-41.88)"/><path class="cls-5" d="M648.77,520.84A38.24,38.24,0,1,1,630,470.12,38.23,38.23,0,0,1,648.77,520.84Z"/><path class="cls-5" d="M576.53,415.94l8.14-5a35.67,35.67,0,0,0-6.32-10.34l-8.14,5a25.38,25.38,0,0,0-6.42-4.67l2.23-9.27a35.81,35.81,0,0,0-5.76-2,34.82,34.82,0,0,0-6-.87L552,398.09a25.42,25.42,0,0,0-7.84,1.24l-5-8.14a35.24,35.24,0,0,0-10.34,6.32l5,8.14a25.38,25.38,0,0,0-4.67,6.42l-9.27-2.23a33.32,33.32,0,0,0-2.84,11.78l9.27,2.23a25.71,25.71,0,0,0,1.23,7.84l-8.13,5A35.24,35.24,0,0,0,525.74,447l8.14-5a25.38,25.38,0,0,0,6.42,4.67L538.06,456a36.49,36.49,0,0,0,5.76,2,35.07,35.07,0,0,0,6,.87l2.23-9.26a25.42,25.42,0,0,0,7.84-1.24l5,8.14a35.24,35.24,0,0,0,10.34-6.32l-5-8.14a25.38,25.38,0,0,0,4.67-6.42l9.26,2.23A32.76,32.76,0,0,0,587,426l-9.26-2.23A25.42,25.42,0,0,0,576.53,415.94Z"/><path class="cls-5" d="M560.69,425.9a8.89,8.89,0,1,1-6.56-10.73A8.89,8.89,0,0,1,560.69,425.9Z"/><circle class="cls-5" cx="552.04" cy="423.82" r="20.18" transform="translate(-139.76 347.8) rotate(-31.24)"/><path class="cls-6" d="M697.1,633.71s21.44-42.53,14.76-49.21-15.81,13-21.44,7.4,13-57.86,0-63.91-23.9,29.22-28.12,31.27-13-24.22-25.13-15,6.86,51.15,0,50.42-17.8-44.68-36-36.94-6.66,75.92-6.66,75.92Z"/><path class="cls-7" d="M688.31,528s-15.81,63.54-38.66,105.72"/><path class="cls-7" d="M695.11,542.9s-6.34,17-19.14,27"/><path class="cls-7" d="M639.9,542.9s3.37,22.09,26,55.09"/><path class="cls-7" d="M710.26,583.41s-17.32,33.25-54.74,38.7"/><path class="cls-7" d="M602.58,557.28s5.77,50.24,22.9,76.87"/><path class="cls-7" d="M617.93,564.85s-.08,22.87-5.89,37.91"/><path class="cls-8" d="M180.08,634.44S204.62,603,203.6,585,182.52,569.57,183,552.6s15.43-34.44,2.06-46.26-25.7,5.14-35.47-10.29-32.14-49.58-46-44.94c-13,4.37-11.2,23.75-1.83,42.89,8.84,18.06,6.57,26.76-4.68,22.57-13.76-5.13-25.36,14.7-14.73,28.83,10.35,13.79,33.29,20.05,30.72,32.39s-16.45,7.71-13.37,23.13,34.74,33.52,34.74,33.52Z"/><path class="cls-7" d="M103.64,451.11s57.58,102.47,57.58,183.33"/><path class="cls-7" d="M95,473.81s8.26,5.06,29.21,19.11"/><path class="cls-7" d="M135.9,475.8a184.57,184.57,0,0,1-1,42.88"/><path class="cls-7" d="M84.77,518.68a207.94,207.94,0,0,0,59.83,27"/><path class="cls-7" d="M177.33,501.92s-10.11,52.61-23.74,75.27"/><path class="cls-7" d="M113.12,577.79s20,19,46,28.35"/><path class="cls-7" d="M197.45,572.14s-13.71,29.94-36.71,49.13"/><ellipse class="cls-9" cx="207.8" cy="653.57" rx="24.78" ry="3.69"/><ellipse class="cls-9" cx="241.06" cy="661.5" rx="24.78" ry="5.68"/><ellipse class="cls-9" cx="258.19" cy="653.57" rx="18.46" ry="4.23"/><path class="cls-10" d="M459.61,363.93c0-17.19,44.8-16.67,57.3-22.66s24-33.09,48.45-33.09S594.12,328,605,330.59s33.29-3.65,42.66,10.68S692,351.42,692,363.93,623.19,383.72,582,383.72,459.61,383.2,459.61,363.93Z"/><path class="cls-11" d="M375.75,549.37H311.87c0,46.33-14.11,69.93-22.12,79.59a3.35,3.35,0,0,0,2.6,5.48H395.27a3.36,3.36,0,0,0,2.61-5.48C389.86,619.3,375.75,595.7,375.75,549.37Z"/><path class="cls-12" d="M375.75,549.37H311.87a191.09,191.09,0,0,1-2.09,29l71.11,14.95C377.85,581.68,375.75,567.22,375.75,549.37Z"/><rect class="cls-13" x="151.03" y="318.45" width="385.56" height="249.24"/><rect class="cls-10" x="166.02" y="331.76" width="355.58" height="212.55"/><rect class="cls-14" x="421.37" y="369.51" width="80.95" height="135.17"/><rect class="cls-15" x="429.69" y="376.85" width="64.31" height="23.46"/><line class="cls-15" x1="429.69" y1="381.59" x2="494" y2="381.59"/><line class="cls-15" x1="429.69" y1="424.12" x2="494" y2="424.12"/><line class="cls-15" x1="429.69" y1="432.14" x2="494" y2="432.14"/><line class="cls-15" x1="429.69" y1="440.17" x2="494" y2="440.17"/><line class="cls-15" x1="429.69" y1="448.19" x2="494" y2="448.19"/><line class="cls-15" x1="429.69" y1="456.21" x2="494" y2="456.21"/><line class="cls-15" x1="429.69" y1="464.24" x2="494" y2="464.24"/><line class="cls-15" x1="429.69" y1="472.26" x2="494" y2="472.26"/><line class="cls-15" x1="429.69" y1="480.29" x2="494" y2="480.29"/><line class="cls-15" x1="429.69" y1="488.31" x2="494" y2="488.31"/><line class="cls-15" x1="429.69" y1="496.33" x2="494" y2="496.33"/><rect class="cls-2" x="178.15" y="367.4" width="71.37" height="162.03"/><rect class="cls-15" x="186.19" y="375.01" width="55.29" height="55.29"/><line class="cls-15" x1="186.19" y1="375.01" x2="241.49" y2="430.3"/><line class="cls-15" x1="241.49" y1="375.01" x2="186.19" y2="430.3"/><path class="cls-2" d="M395.33,487.44H265.4a1.47,1.47,0,0,1-1.46-1.46h0a1.46,1.46,0,0,1,1.46-1.46H395.33a1.45,1.45,0,0,1,1.45,1.46h0A1.46,1.46,0,0,1,395.33,487.44Z"/><path class="cls-2" d="M395.33,496.06H265.4a1.46,1.46,0,0,1-1.46-1.46h0a1.47,1.47,0,0,1,1.46-1.46H395.33a1.46,1.46,0,0,1,1.45,1.46h0A1.45,1.45,0,0,1,395.33,496.06Z"/><path class="cls-2" d="M395.33,504.68H265.4a1.46,1.46,0,0,1-1.46-1.46h0a1.46,1.46,0,0,1,1.46-1.45H395.33a1.45,1.45,0,0,1,1.45,1.45h0A1.45,1.45,0,0,1,395.33,504.68Z"/><rect class="cls-16" x="266.88" y="370.84" width="132.53" height="105.12" rx="3.76"/><rect class="cls-17" x="264.1" y="367.4" width="132.53" height="105.12" rx="3.76"/><path class="cls-2" d="M264.1,447.51v17.08a7.93,7.93,0,0,0,7.93,7.93H388.7a7.93,7.93,0,0,0,7.93-7.93V447.51Z"/><polygon class="cls-18" points="315.04 387.84 315.04 428.2 350.83 408.02 315.04 387.84"/><path class="cls-19" d="M375.41,458.67H285.32a2.77,2.77,0,0,1-2.77-2.77h0a2.77,2.77,0,0,1,2.77-2.76h90.09a2.77,2.77,0,0,1,2.76,2.76h0A2.77,2.77,0,0,1,375.41,458.67Z"/><line class="cls-19" x1="282.55" y1="462.78" x2="378.17" y2="462.78"/><line class="cls-19" x1="282.55" y1="466.89" x2="378.17" y2="466.89"/><rect class="cls-2" x="166.02" y="331.76" width="355.58" height="14.2"/><path class="cls-20" d="M180.79,338.86a2.41,2.41,0,1,1-2.41-2.42A2.41,2.41,0,0,1,180.79,338.86Z"/><path class="cls-20" d="M194.71,338.86a2.41,2.41,0,1,1-2.41-2.42A2.41,2.41,0,0,1,194.71,338.86Z"/><path class="cls-20" d="M208.64,338.86a2.41,2.41,0,1,1-2.41-2.42A2.41,2.41,0,0,1,208.64,338.86Z"/><line class="cls-21" x1="54.9" y1="634.44" x2="718.02" y2="634.44"/><path class="cls-9" d="M396.53,642.39c0,2.2-8,4-17.93,4s-17.94-1.78-17.94-4,8-4,17.94-4S396.53,640.2,396.53,642.39Z"/><path class="cls-9" d="M476.14,642.39c0,2.2-8,4-17.93,4s-17.94-1.78-17.94-4,8-4,17.94-4S476.14,640.2,476.14,642.39Z"/><path class="cls-22" d="M387.35,601.64s-2.89,22.48-3.76,28.73c-1.24,8.88-13.68,6.37-14,9.18s18.38,4,20.12,2.64-.77-2,1.08-9.69,7.89-31.35,7.89-31.35Z"/><path class="cls-22" d="M446,601.41s8.9,22,11,28.93c2.57,8.6-8.36,8.69-8.14,11.52.1,1.3,16.88.21,18.35-1.44s-.86-4.64-2.78-9.24c-3.4-8.11-7.37-32.24-7.37-32.24Z"/><path class="cls-12" d="M432,485.3s10,34.18,11.82,71.2c0,0,13.63,27,16.71,46.26H443.77s-20-38.81-27-86.62c0,0-4.37,22.36-9,41.38,0,0,1.54,28.54-1.54,45.24H386.71s1-41.64,5.4-67.08,7.71-50.38,7.71-50.38Z"/><path class="cls-23" d="M437.61,509.1c-2.89-14.34-5.66-23.8-5.66-23.8H399.82s-.59,4.42-1.6,11.42C405.45,501.33,421.28,509.94,437.61,509.1Z"/><path class="cls-22" d="M390.1,438.81l-14.59,10.07s-14-13.9-15.33-16.45-2.54-5.83-5.09-7.78-8-3.59-8.23-2.84,3.82,1.35,4.94,2.39c0,0-2.32,4-.37,7A10.44,10.44,0,0,0,357,435s10.31,23.43,17.35,24.15c3.67.37,21.3-12.56,21.3-12.56Z"/><path class="cls-12" d="M408.43,396.45c-5.29,1.76-3.26,6.68-4.29,9.25s-4.37,5.11-3.25,9.67,2.31,6.95,1.11,8.41-2.23,4.11,3.17,4.11h11.65c4.37,0,5.57-3.68,3.69-9s-2-13.79-1.74-17.48S412,395.25,408.43,396.45Z"/><path class="cls-24" d="M399,449.25c.25,3,1.6,5.29,1.94,11s-2.48,28.53-2.48,28.53c15.34,6.43,37.87,0,37.87,0-6-12.59-5.14-29.56-5.14-29.56s8.82-2.74,10.11-3.85-3.09-11.49-4.89-15.94-6.08-10.8-10.71-11.57-12.5-1.28-12.5-1.28c-4.89,0-11.91,3.08-16.45,6.42a92.83,92.83,0,0,0-7.5,6.08L394,450.55a1.5,1.5,0,0,0,2.26.65Z"/><path class="cls-22" d="M415.45,400.9c4,0,9,2.15,9.77,10.29s-1.89,12.85-1.71,17.05c0,0-9.43,3.59-9.43,0s.43-5.32-.68-6-5.66-.17-6.26-2.57.3-5.36-.56-6.81a3.88,3.88,0,0,0-2-1.8s1.8-.13,3.09-3.64S411.46,401,415.45,400.9Z"/><path class="cls-25" d="M409.6,421.48c1.48.35,3.17.37,3.8.76,1.11.68.68,2.4.68,6s9.43,0,9.43,0c-.16-3.74,1.92-7.91,1.83-14.52a1.16,1.16,0,0,0-.56.44C422,417.88,412,421.78,409.6,421.48Z"/><path class="cls-12" d="M408.43,396.45s-1.79,3.93,3.43,5.43.59,8.85,3.59,13.49,4.71,6.87,3.69,12,0,9.25,4.11,9.25h9.34c3,0,6.25-3.17,2.83-9.34s-6.43-6.51-5.57-13.36S427.1,391.74,408.43,396.45Z"/><rect class="cls-26" x="414.21" y="479.12" width="33.48" height="25.84" rx="0.7"/><path class="cls-11" d="M434.8,492a3.86,3.86,0,1,1-3.86-3.86A3.86,3.86,0,0,1,434.8,492Z"/><path class="cls-12" d="M467.15,640.42c1.1-1.23.09-3.2-1.29-6a24.66,24.66,0,0,1-9.31,1.22c-2.12,3.54-7.91,4.16-7.75,6.23C448.9,643.16,465.68,642.07,467.15,640.42Z"/><path class="cls-12" d="M390.11,636.3c-5.46.67-8.44.17-10.07-.56-4.1,2.47-10.24,1.85-10.48,3.81-.36,2.94,18.38,4,20.12,2.64C391.07,641.1,389.75,640.45,390.11,636.3Z"/><path class="cls-27" d="M399,449.25c-.9-6.31,4.86-9.52,4.92-12.62"/><path class="cls-27" d="M424,439.78s-1.43,3.77,7.15,19.85"/><path class="cls-22" d="M431.81,457.47l6.59,18.71s-8.91,23.31-10.28,24.94-6.17,4.45-5.66,5.05,3.09-1,3.09-1-2.23,2.14-.26,2.14h4.45c1.89,0,2.92-5.65,2.92-5.65s13-18.59,13.45-25.28c.36-5.69-4.25-18.43-5.62-22.06a1.07,1.07,0,0,0-1.37-.62l-6.67,2.45A1.05,1.05,0,0,0,431.81,457.47Z"/><line class="cls-28" x1="442.89" y1="598.94" x2="459.41" y2="598.94"/><line class="cls-28" x1="387.52" y1="598.94" x2="405.54" y2="598.94"/><path class="cls-29" d="M469,379.8a18.31,18.31,0,0,0-16.16,26.92,16.61,16.61,0,0,1-9.8,4.95s7,4.66,15,1.06a18.3,18.3,0,1,0,11-32.93Z"/><path class="cls-10" d="M467.46,378.26a18.3,18.3,0,0,0-16.15,26.92,16.64,16.64,0,0,1-9.81,4.95s7,4.67,15,1.06a18.3,18.3,0,1,0,11-32.93Z"/><path class="cls-11" d="M467.78,386.48a9.44,9.44,0,0,1,2.6.37,7.15,7.15,0,0,1,2.25,1.1,5.63,5.63,0,0,1,1.57,1.79,4.91,4.91,0,0,1,.6,2.45,5,5,0,0,1-.36,2,5.67,5.67,0,0,1-.91,1.5,9.89,9.89,0,0,1-1.2,1.22l-1.24,1.05a8.29,8.29,0,0,0-1,1,2.3,2.3,0,0,0-.53,1.17,1.22,1.22,0,0,1-.25.54.67.67,0,0,1-.51.22h-2.16a.79.79,0,0,1-.56-.22.65.65,0,0,1-.21-.54,4.91,4.91,0,0,1,.47-1.95,6.85,6.85,0,0,1,1-1.5,10.16,10.16,0,0,1,1.25-1.21c.45-.36.86-.71,1.24-1a6.59,6.59,0,0,0,.94-1,1.84,1.84,0,0,0,.37-1.1,2.15,2.15,0,0,0-.91-1.77,3.85,3.85,0,0,0-2.42-.7,3.74,3.74,0,0,0-3.55,2.42,1.59,1.59,0,0,1-.3.47.73.73,0,0,1-.52.15h-2.3a.64.64,0,0,1-.44-.17.55.55,0,0,1-.19-.45,4.35,4.35,0,0,1,.61-2,6.92,6.92,0,0,1,1.56-1.88A8.47,8.47,0,0,1,465,387,7.46,7.46,0,0,1,467.78,386.48Zm1.14,16.14a.73.73,0,0,1,.54.22.78.78,0,0,1,.23.54v2.5a.74.74,0,0,1-.23.54.7.7,0,0,1-.54.23h-2.44a.79.79,0,0,1-.77-.77v-2.5a.77.77,0,0,1,.77-.76Z"/><path class="cls-22" d="M211.62,640.68V581h-9.18v60.12a4.37,4.37,0,0,1-2.79,4.11c-5,1.86-8.35,5-8.35,6.21,0,1.85,7.33,3.35,16.37,3.35S224,653.3,224,651.45c0-1.34-3.87-4.8-9.46-6.6A4.34,4.34,0,0,1,211.62,640.68Z"/><polygon class="cls-30" points="211.62 599.52 211.62 581.01 202.44 581.01 202.44 595.55 211.62 599.52"/><path class="cls-22" d="M226.38,566.79a16.43,16.43,0,0,1-16.67-14.25c-2.92-22-8.44-61.74-11-68.56-3.54-9.51-5.47-8.27-16.52-8.27H161.14c-7.71,0-6.16,14.31-3.59,30.51s8.74,46.52,11.82,58.86,11.72,20.3,24.36,20.3H233.5c8.67,0,18.89-2,20.18-6.77a100.41,100.41,0,0,0,2-12.51Z"/><path class="cls-11" d="M223.6,492.85c3.86,4.5,4.63,16.84,7.2,26.09s9.9,25.57,9.9,25.57H226.43a155.22,155.22,0,0,1-4.62-31.61C221.29,496.45,223.6,492.85,223.6,492.85Z"/><path class="cls-31" d="M223.6,492.85c3.86,4.5,4.63,16.84,7.2,26.09s9.9,25.57,9.9,25.57H226.43a155.22,155.22,0,0,1-4.62-31.61C221.29,496.45,223.6,492.85,223.6,492.85Z"/><path class="cls-12" d="M198.74,474.47s-2.25-3.28-1.42-5.46c-2.57-3.86-3.27-7.45-1.8-9.7.39-5.14-2.65-8.36-1.54-10.35,3-5.4,8.87-3.6,11.89-4.95s8.61-6.23,16.19-2.44,4.12,9.7,6.24,12.79,2.76,6.23.32,8.29-3.54.45-4.82,1.73-3.09,3.34-3.09,3.34Z"/><path class="cls-22" d="M223.05,460.72a27.74,27.74,0,0,1-.34,5.91c-.52,2,1,4.65.46,4.9s-2.2-.46-2.2-.46-1.92,7.13-3.79,7a11.75,11.75,0,0,1-4.63-1.54l-4.17,11.82s-6.94.84-11-3.21,1.15-10.48,2.63-18c0,0,1,.51,2.25-1.67s-1.41-5.27,1.09-6.17,2.12,2.95,1.87,3.72,2-.85,2.7-3.86c0,0,3.79-.44,6-2.95a4.54,4.54,0,0,0,4.95,2.77S220.48,461.94,223.05,460.72Z"/><path class="cls-32" d="M212.55,476.53s.32.19.84.44A6,6,0,0,0,212.55,476.53Z"/><path class="cls-33" d="M202.47,465h0a3.05,3.05,0,0,1-.2.46c-1.22,2.18-2.25,1.67-2.25,1.67-1.48,7.51-6.68,13.94-2.63,18s11,3.21,11,3.21l4.17-11.82C204.71,473.61,202.47,465,202.47,465Z"/><path class="cls-11" d="M193,478.47c-2.4,1-16.62,1.44-23,9.95s5.14,61.36,12.33,61.36H230.8c-7.45-18-7.2-56.93-7.2-56.93-2.55-3.33-9.51-7.26-9.51-7.26s-.32-1.54-.38-2.06-2.82-2.31-2.82-2.31l-.82,2.34-3.56,4s.64-5.08-3.15-6.82a26.81,26.81,0,0,1-6.42-4.17l.76-2.06a14.7,14.7,0,0,0-2.5,0C194.24,474.6,193,478.47,193,478.47Z"/><path class="cls-28" d="M206.37,488.42s-2.61,34.73,7.72,59.94"/><path class="cls-34" d="M175.05,493.6v-6.9c37.5,16.65,28,34.18,51,58.57h-51Z"/><path class="cls-12" d="M293.07,542.53H238.39l10.77-38a3.23,3.23,0,0,1,3.1-2.34H302.2a1.75,1.75,0,0,1,1.68,2.22Z"/><circle class="cls-10" cx="272.47" cy="522.38" r="6.03"/><rect class="cls-12" x="193.73" y="539.34" width="58.22" height="3.19"/><path class="cls-28" d="M204.46,482.58a34.14,34.14,0,0,0-2.06,5.84c-.77,3.14-6.52,0-9.38-7.91"/><path class="cls-28" d="M211.52,484c-.25,2.36-2.27,7-1.62,7.28s3-1.67,4.19-5.67"/><path class="cls-22" d="M212.42,537.32a23.4,23.4,0,0,0,7.14,1.54c4.17.26,11.76,2.06,13.94,4.24H211.91Z"/><path class="cls-11" d="M173.74,486.7c6.43,0,9.12,9.11,9.25,16.95.11,6.28,1,16.94,1.4,20.93a2.45,2.45,0,0,0,1.63,2.08l28.07,9.89v6.55H177.85c-9.25,0-12.85-.9-13.36-16.45S164.87,486.7,173.74,486.7Z"/><path class="cls-22" d="M250.42,636.38s-2,13.73-1.13,15.57,19.23,5.47,20.61,3.78-10.29-4.76-10.7-9.46a43.19,43.19,0,0,1,.82-9.89Z"/><path class="cls-12" d="M269.9,655.73c1.19-1.46-7.34-4-9.95-7.63a20.37,20.37,0,0,1-10.84.17,10.67,10.67,0,0,0,.18,3.68C250.22,653.79,268.52,657.42,269.9,655.73Z"/><path class="cls-12" d="M236.54,576.39l17.14,2.22-4.29,59.46H261.9s12.51-46.26,15.6-61.68-18-23.65-34.53-27.76H206.38S204.84,566.79,236.54,576.39Z"/><path class="cls-35" d="M243,548.63H206.38s-1.54,18.16,30.16,27.76l11.09,1.44L265,556.71C258.4,553,250.25,550.44,243,548.63Z"/><path class="cls-36" d="M231.21,559.15s30.86,7.75,32.24,12.66c2.28,8.14-9.14,61.3-9.14,61.3"/><line class="cls-15" x1="249.75" y1="633.11" x2="263.45" y2="633.11"/><path class="cls-22" d="M228.48,642.7s.61,15.51,1.64,17.57,21.08,5.91,22.62,4-10.62-5.66-12.59-10.54-1.55-11-1.55-11Z"/><path class="cls-12" d="M230.12,660.27c1,2.05,21.08,5.91,22.62,4,1.32-1.61-7.33-4.6-11.13-8.47a34.56,34.56,0,0,1-12.37-1A23.9,23.9,0,0,0,230.12,660.27Z"/><path class="cls-12" d="M216,548.46s18,6.16,23.48,19.36,2.91,76.77,2.91,76.77H227.29L214.78,578.1s-20.22-.17-28.1-3.6-7.2-19.88-4.8-27.76Z"/><line class="cls-15" x1="226.06" y1="638.07" x2="242.53" y2="638.07"/><path class="cls-36" d="M187.26,546.74s-1.84,14.08,6.33,18.3,25.3.3,30.44,6.35,7.18,66.68,7.18,66.68"/><rect class="cls-30" x="288.76" y="546.74" width="5.91" height="120.12"/><rect class="cls-30" x="166.67" y="546.74" width="5.91" height="120.12"/><rect class="cls-37" x="288.76" y="546.74" width="5.91" height="18.3"/><rect class="cls-37" x="166.67" y="546.74" width="5.91" height="18.3"/><rect class="cls-30" x="160.25" y="542.53" width="140.86" height="8.42"/><polygon class="cls-38" points="195.92 362.06 98.96 362.06 98.96 438.34 155.88 438.34 178.7 456.83 175.49 438.34 195.92 438.34 195.92 362.06"/><polygon class="cls-30" points="198.25 360.3 101.29 360.3 101.29 436.59 101.29 436.59 158.21 436.59 181.03 455.07 177.82 436.59 198.25 436.59 198.25 436.59 198.25 360.3"/><path class="cls-12" d="M145.79,417.53v4c0,1.22,1.78,2.21,4,2.21s4-1,4-2.21v-4Z"/><path class="cls-39" d="M149.77,378.72c-6.66,0-14.43,2.48-14.43,9.94s6.74,11.33,6.74,17.62v4.31h15.39v-4.31c0-6.29,6.74-10.17,6.74-17.62S156.44,378.72,149.77,378.72Z"/><rect class="cls-12" x="142.1" y="410.59" width="15.35" height="9.93"/><line class="cls-40" x1="142.1" y1="412.58" x2="157.45" y2="412.58"/><line class="cls-40" x1="142.1" y1="415.48" x2="157.45" y2="415.48"/><line class="cls-40" x1="142.1" y1="418.39" x2="157.45" y2="418.39"/><path class="cls-41" d="M153.18,410.59l1.27-13.47c.09-1.34-.42-2.47-1.15-2.47-.52,0-1,.61-1.22,1.45-.18-.84-.61-1.45-1.13-1.45s-1,.61-1.18,1.45c-.2-.84-.65-1.45-1.17-1.45s-.95.61-1.13,1.45c-.24-.84-.71-1.45-1.23-1.45-.72,0-1.23,1.13-1.14,2.47l1.26,13.47"/><line class="cls-42" x1="149.45" y1="369.65" x2="149.45" y2="373.86"/><line class="cls-42" x1="136.97" y1="372.53" x2="139.5" y2="376.18"/><line class="cls-42" x1="127.89" y1="380.23" x2="132.27" y2="382.33"/><line class="cls-42" x1="167.03" y1="399.05" x2="171.41" y2="401.15"/><line class="cls-42" x1="124.65" y1="390.67" x2="129.7" y2="390.67"/><line class="cls-42" x1="169.84" y1="390.67" x2="174.9" y2="390.67"/><line class="cls-42" x1="128.11" y1="401.06" x2="132.48" y2="398.96"/><line class="cls-42" x1="167.25" y1="382.24" x2="171.62" y2="380.14"/><line class="cls-42" x1="159.94" y1="376.03" x2="162.47" y2="372.38"/><path class="cls-24" d="M480.16,507.61H604.55a0,0,0,0,1,0,0V652.54a2.65,2.65,0,0,1-2.65,2.65H484.71a4.56,4.56,0,0,1-4.56-4.56v-143A0,0,0,0,1,480.16,507.61Z"/><rect class="cls-28" x="480.16" y="553.68" width="124.39" height="5.58"/><rect class="cls-28" x="480.16" y="589.15" width="124.39" height="5.58"/><polygon class="cls-43" points="519.15 567.71 507.19 560.8 495.24 567.71 495.24 518.08 519.15 518.08 519.15 567.71"/><path class="cls-44" d="M604.55,518.08H489.31a9.14,9.14,0,0,1-9.15-9.15h0a9.14,9.14,0,0,1,9.15-9.15H604.55Z"/><path class="cls-10" d="M601.12,518.08H491.17a7.69,7.69,0,0,1-7.69-7.69h0a7.69,7.69,0,0,1,7.69-7.69h110Z"/><g class="cls-45"><path class="cls-17" d="M484.07,513.36c.07.16.16.29.23.44H601.12v-.44Z"/><path class="cls-17" d="M601.12,515.49H485.45a5.39,5.39,0,0,0,.39.43H601.12Z"/><path class="cls-17" d="M483.56,511.24c0,.14,0,.29.05.43H601.12v-.43Z"/><path class="cls-17" d="M483.61,509.11c0,.14,0,.29-.05.43H601.12v-.43Z"/><path class="cls-17" d="M485.84,504.86c-.14.14-.26.29-.39.43H601.12v-.43Z"/><path class="cls-17" d="M484.3,507c-.07.14-.16.28-.23.43H601.12V507Z"/></g><polygon class="cls-17" points="516.92 564.85 504.96 557.94 493.01 564.85 493.01 518.08 516.92 518.08 516.92 564.85"/><line class="cls-46" x1="488.93" y1="518.08" x2="604.55" y2="518.08"/><path class="cls-10" d="M114.88,290.24c0-11.31,29.47-11,37.7-14.91s15.76-21.76,31.87-21.76,18.92,13,26.08,14.73,21.9-2.39,28.07,7,29.13,6.68,29.13,14.91-45.24,13-72.31,13S114.88,302.92,114.88,290.24Z"/><polygon class="cls-10" points="400 250 404.7 228.19 434.5 263.5 400 250"/><polygon class="cls-47" points="400 250 388.91 258.75 396.65 261.64 434.5 263.5 400 250"/><polygon class="cls-10" points="398.85 253.41 389.42 273.63 434.5 263.5 398.85 253.41"/><line class="cls-21" x1="279.03" y1="666.86" x2="303.28" y2="666.86"/><line class="cls-21" x1="157.5" y1="666.86" x2="181.75" y2="666.86"/><line class="cls-21" x1="469.95" y1="655.19" x2="623.35" y2="655.19"/><path class="cls-48" d="M632.63,621l-43.76-43.85a34,34,0,1,0-6.48,5.79L621,631.35Zm-90.57-47.49a28.34,28.34,0,1,1,40,2.27A28.35,28.35,0,0,1,542.06,573.49Z"/><polygon class="cls-11" points="637.17 615.1 626.15 626.12 580.91 575.53 586.58 569.86 637.17 615.1"/><circle class="cls-49" cx="564.1" cy="553.05" r="28.34"/><path class="cls-12" d="M588.15,529a34,34,0,1,0,0,48.09A34,34,0,0,0,588.15,529Zm-4,44.09a28.34,28.34,0,1,1,0-40.09A28.34,28.34,0,0,1,584.14,573.09Z"/><path class="cls-10" d="M545.42,540.71a1.67,1.67,0,0,1-1-.34,1.7,1.7,0,0,1-.34-2.38,25.66,25.66,0,0,1,2.32-2.67,1.7,1.7,0,0,1,2.4,2.41,21.82,21.82,0,0,0-2,2.3A1.73,1.73,0,0,1,545.42,540.71Z"/><path class="cls-10" d="M552.35,534.55a1.7,1.7,0,0,1-.86-3.17A25.2,25.2,0,0,1,571,529a1.69,1.69,0,0,1,1.17,2.1,1.71,1.71,0,0,1-2.1,1.17,21.77,21.77,0,0,0-16.87,2.1A1.75,1.75,0,0,1,552.35,534.55Z"/><line class="cls-50" x1="622.57" y1="622.11" x2="633.08" y2="611.44"/><path class="cls-51" d="M310.87,667.88a2.81,2.81,0,1,1,2.81-2.81A2.81,2.81,0,0,1,310.87,667.88Zm0-4.62a1.81,1.81,0,1,0,1.81,1.81A1.81,1.81,0,0,0,310.87,663.26Z"/></g></g></svg>