<svg id="圖層_1" data-name="圖層 1" xmlns="http://www.w3.org/2000/svg" viewBox="0 0 800 800"><defs><style>.cls-1{fill:#c6f4ff;}.cls-2,.cls-3,.cls-4,.cls-6{fill:#f3feff;}.cls-3{opacity:0.3;}.cls-4{opacity:0.48;}.cls-14,.cls-5{fill:#fff;}.cls-5{opacity:0.54;}.cls-6{opacity:0.73;}.cls-7{fill:#aee4ed;}.cls-8{fill:#30c5cc;}.cls-9{fill:#3d9cff;}.cls-10{fill:#0b9b9b;}.cls-11{fill:#db5a28;}.cls-12{fill:#2f2f8e;}.cls-13{fill:#4c49a2;}.cls-15{fill:#e67750;}.cls-16{fill:#efefef;}.cls-17{fill:#fd9e71;}.cls-18{fill:#201251;}.cls-19{fill:#31d0a8;}.cls-20{fill:#feba40;}.cls-21{fill:#fedb9b;}.cls-22{fill:#4cb0dd;}.cls-23{fill:#75d5ef;}.cls-24{fill:#fdbe44;}.cls-25{fill:#98dbe5;}.cls-26{fill:#86d2e8;}.cls-27{fill:#f6fffa;}.cls-28{fill:#ffe780;}.cls-29{fill:#1fb288;}.cls-30{fill:#9e472d;}.cls-31{fill:#262845;}.cls-32{fill:#6aa5cc;}.cls-33{fill:#96c4ea;}.cls-34{fill:#1a133a;}.cls-35{fill:#e79673;}</style></defs><title>service</title><circle class="cls-1" cx="386.83" cy="393.41" r="293.1"/><circle class="cls-2" cx="423.36" cy="654.9" r="44.78"/><circle class="cls-3" cx="569.39" cy="583.04" r="77.61"/><circle class="cls-4" cx="461.52" cy="462.81" r="44.78"/><circle class="cls-5" cx="227.07" cy="250.51" r="109.99"/><circle class="cls-6" cx="512.6" cy="648.76" r="28.36" transform="translate(-183.97 203.3) rotate(-19.09)"/><path class="cls-7" d="M360.35,620.92c0,5.57-34.2,10.08-76.4,10.08s-76.41-4.51-76.41-10.08,34.21-10.07,76.41-10.07S360.35,615.36,360.35,620.92Z"/><ellipse class="cls-7" cx="629.03" cy="608.33" rx="77.24" ry="7.56"/><polygon class="cls-8" points="151.15 522.89 142.05 522.89 142.05 513.79 136.38 513.79 136.38 522.89 127.28 522.89 127.28 528.57 136.38 528.57 136.38 537.66 142.05 537.66 142.05 528.57 151.15 528.57 151.15 522.89"/><path class="cls-9" d="M159.43,506.15a5.62,5.62,0,1,1-5.62-5.62A5.62,5.62,0,0,1,159.43,506.15Z"/><rect class="cls-8" x="169.86" y="186.01" width="490.19" height="392.94" rx="18.48"/><rect class="cls-10" x="232.48" y="152.19" width="364.95" height="460.56" rx="12.01" transform="translate(797.43 -32.48) rotate(90)"/><rect class="cls-1" x="196.74" y="210.55" width="436.42" height="343.85" rx="7.76"/><path class="cls-10" d="M140.43,553.63a56.08,56.08,0,0,0,47.91,27.11H641.57a56.09,56.09,0,0,0,47.91-27.11Z"/><path class="cls-8" d="M146.29,561.59H683.62a56.67,56.67,0,0,0,5.86-8h-549A55.89,55.89,0,0,0,146.29,561.59Z"/><rect class="cls-11" x="231.05" y="414.94" width="122.02" height="68.29"/><rect class="cls-8" x="350.41" y="240.13" width="45.9" height="6.32"/><rect class="cls-8" x="291.05" y="240.13" width="28.02" height="6.32"/><rect class="cls-8" x="227.07" y="240.13" width="55.52" height="6.32"/><rect class="cls-8" x="327.85" y="240.13" width="12.04" height="6.32"/><rect class="cls-8" x="407.99" y="240.13" width="27.93" height="6.32"/><rect class="cls-8" x="350.41" y="258.61" width="17.22" height="6.32"/><rect class="cls-8" x="374.48" y="258.61" width="17.22" height="6.32"/><rect class="cls-8" x="262.51" y="258.61" width="28.02" height="6.32"/><rect class="cls-8" x="227.07" y="258.61" width="27.49" height="6.32"/><rect class="cls-8" x="298.22" y="258.61" width="46.15" height="6.32"/><path class="cls-12" d="M308,609.32c-2.91-9.32-8.54-48.72-9.8-64.15-.26-3.27-36.17-17.29-36.17-17.29-21-.54-31.84,7.71-31.84,7.71l50.47,17c0,22.77,19.41,57.1,19.41,57.1Z"/><path class="cls-13" d="M264.72,557.16l-15,52.19,8.56,1.87c3.74-12.31,25.31-54.51,25.89-59.53.25-2.14.1-3.79-.7-4.46s-25-15.13-32-16.71c-9.42-2.11-23.39-5.5-23.39-5.5a28.19,28.19,0,0,0-6.35,21.64C223.26,560.07,264.72,557.16,264.72,557.16Z"/><path class="cls-14" d="M244.49,465.37s-16.42,1.46-17.17,5.94,7.84,32.81,7.84,32.81l-8.35,22.28s23.69,5.83,35.24,1.48c1.09.5,3-23.38,3-23.38l4.11-11.74,5.22,17.71,11.94,16.79,7.84-6.34-8.7-15.3S272,474.88,268.37,471.31C261.65,464.59,244.49,465.37,244.49,465.37Z"/><path class="cls-15" d="M257.51,466.55l-1.27-16.89H243.93v15.78c-1.56.17,1.68,12.77,11.6,12.77C255.53,478.21,260.16,476.53,257.51,466.55Z"/><path class="cls-16" d="M232.55,495.17c1.44,5.09,2.61,8.95,2.61,8.95l-8.35,22.27s18,4.44,30.3,2.69c-1.1-.81-15.64-10.61-16.35-14.88C239.26,505.24,232.55,495.17,232.55,495.17Z"/><path class="cls-17" d="M268.48,432.61c-1-4.33-7.79-5.58-18.45-4.32-7.25.85-8.88,7.52-9.09,12.48-.11,0-.21,0-.32.08a5.88,5.88,0,0,0-4.15,5.85,5.75,5.75,0,0,0,1.43,3.59,6.06,6.06,0,0,0,4.39,2.8,5.51,5.51,0,0,0,1.52,0c3,6.28,8.56,14.12,16.33,13.18C271.53,458.27,268.48,432.61,268.48,432.61Z"/><path class="cls-18" d="M244.06,444a8.28,8.28,0,0,1,3-9.64c5.31-4,5.67,1.9,11.27,2.63s11.13.26,10.53,4c3.39-8.36-1.51-13.15-7-15.77s-14.06-3.75-20,1.23-5.16,16.92-5.16,16.92C240.58,441.42,241.63,443,244.06,444Z"/><path class="cls-18" d="M241.81,426.4s-4.95-13.3-14.33-10-5.15,22.19-6.18,30.41-6.93,8.58-9,4.93c-3.92,7.45,11.44,15,16.44,7.86s2.12-25.31,5.32-27.16,6.41.55,6.41.55Z"/><path class="cls-14" d="M227.69,469.81c-3.94,2.28-11.19,29.46-11.19,33.94s35,26.77,35,26.77,1.61-5.5,5.34-6.62c-.75-.37-26.12-24.63-26.12-24.63l6.72-19S237.4,464.22,227.69,469.81Z"/><polygon class="cls-8" points="248.78 533.95 284.42 532.86 307.55 541.44 268.39 543.52 248.78 533.95"/><polygon class="cls-10" points="268.39 543.52 248.78 535.92 248.78 533.95 269.94 541.58 268.39 543.52"/><polygon class="cls-10" points="268.39 543.52 280.16 511.36 319.12 513.45 307.55 542.19 268.39 543.52"/><path class="cls-8" d="M292.31,525.59c-1.16,2.31-.81,4.84.78,5.63s3.82-.44,5-2.75.81-4.84-.78-5.64S293.47,523.27,292.31,525.59Z"/><path class="cls-17" d="M256.8,523.9s14.18,11.2,12.69,11.94-7.84.75-11.2-1.12-6.83-4.2-6.83-4.2S252.7,524.27,256.8,523.9Z"/><path class="cls-18" d="M258.67,608.61c2.51,2.55,11.08,6.42,15.3,7.46,4.52,1.12,3.73,4.92.42,4.92-6.49,0-20.92-.81-28-.81-1.12-3.36.81-7.85,3.08-10.88C250.12,608.38,258.31,608.24,258.67,608.61Z"/><path class="cls-18" d="M309.79,608.61c2.52,2.55,11.08,6.42,15.3,7.46,4.52,1.12,3.73,4.92.42,4.92-6.48,0-20.92-.81-28-.81-1.12-3.36.8-7.85,3.07-10.88C301.24,608.38,309.43,608.24,309.79,608.61Z"/><rect class="cls-19" x="231.71" y="388.39" width="34.22" height="9.43"/><rect class="cls-19" x="318.86" y="388.39" width="34.22" height="9.43"/><rect class="cls-19" x="275.29" y="388.39" width="34.22" height="9.43"/><rect class="cls-20" x="350.03" y="219.23" width="111.64" height="41.59" transform="translate(-45.48 103.55) rotate(-13.78)"/><rect class="cls-21" x="353.25" y="227.33" width="82.23" height="5.75" transform="translate(-43.47 100.54) rotate(-13.78)"/><rect class="cls-21" x="355.88" y="238.86" width="68.71" height="5.75" transform="translate(-46.34 99.88) rotate(-13.78)"/><rect class="cls-21" x="359.07" y="254.03" width="32.6" height="5.75" transform="translate(-50.38 96.78) rotate(-13.78)"/><rect class="cls-14" x="426.68" y="227.94" width="17.46" height="5.75" transform="translate(-42.44 110.33) rotate(-13.78)"/><rect class="cls-14" x="230.42" y="278.63" width="121.78" height="99.37"/><rect class="cls-22" x="361.32" y="335.94" width="239.49" height="44.81"/><rect class="cls-14" x="528.83" y="342.43" width="64.81" height="31.84"/><rect class="cls-23" x="370.08" y="344.36" width="149.8" height="6.14"/><rect class="cls-23" x="370.08" y="355.28" width="149.8" height="6.14"/><rect class="cls-23" x="370.08" y="366.2" width="100.85" height="6.14"/><rect class="cls-14" x="361.37" y="412.77" width="230.15" height="107.99"/><rect class="cls-24" x="361.37" y="412.77" width="230.15" height="17.9"/><rect class="cls-25" x="366.96" y="456.13" width="132.9" height="9.11"/><rect class="cls-25" x="366.96" y="472.34" width="119.18" height="9.11"/><rect class="cls-25" x="366.96" y="488.54" width="80.38" height="9.11"/><rect class="cls-25" x="366.96" y="441.2" width="47.9" height="9.11"/><rect class="cls-26" x="512.8" y="440.76" width="69.51" height="69.51"/><path class="cls-27" d="M554.66,475.06a8.81,8.81,0,0,0,1.75-5.26v-5.31a8.86,8.86,0,0,0-17.71,0v5.31a8.8,8.8,0,0,0,1.92,5.49,20.87,20.87,0,0,0-14,19.7h43.78S568.76,479.15,554.66,475.06Z"/><circle class="cls-11" cx="373.27" cy="422.17" r="4.52"/><circle class="cls-28" cx="387.74" cy="422.17" r="4.52"/><circle class="cls-29" cx="404.53" cy="422.17" r="4.52"/><rect class="cls-11" x="513.16" y="235.82" width="80.6" height="80.6"/><path class="cls-30" d="M626,593.88s.69,2.12-5.81,5.09-13.37,1.92-15.05,4.41a13.53,13.53,0,0,0-2.08,4.85h37s-.28-10.21-4.47-14.75C636.14,594.46,626,593.88,626,593.88Z"/><path class="cls-30" d="M666.31,593.87s.67,2-5.58,4.89-12.86,1.84-14.48,4.24a13,13,0,0,0-2,4.67h35.57s-.27-9.83-4.3-14.19C676,594.42,666.31,593.87,666.31,593.87Z"/><polygon class="cls-14" points="618.73 399.35 591.87 404.07 572.97 363.63 601.9 361.27 618.73 399.35"/><path class="cls-31" d="M585.19,395.26h0C585.12,395.3,585.1,395.3,585.19,395.26Z"/><path class="cls-17" d="M637.32,323.49s-3.54,7.08-3.54,13.58c0,4.54.58,11.09.92,14.63a2,2,0,0,0,2.64,1.76l5.29-1.63-.29,7.67,14.78-.26,3.23-31S648,314.63,637.32,323.49Z"/><path class="cls-18" d="M638.44,339.78s.83-6.14,5.46-4.87-.67,7.47-.67,7.47l4.42,8a13.58,13.58,0,0,0,10.33-.3s4.92-14.95,4.92-19.67-4.3-7.92-4.3-7.92-11.54-5.76-17.74-5.46-6.79,6.49-6.79,6.49-2.36,4.72,0,6.79S638.44,339.78,638.44,339.78Z"/><path class="cls-32" d="M657.79,355l-.67,4.27-15.27.06S644.8,354.58,657.79,355Z"/><path class="cls-17" d="M592.45,393.15s1.07-3.35-3.24-5.31c.11-.79-.87-4.71-1.77-5.61s-1.48,4.13-1.48,4.13-4.23-7.53-5.31-5.61,9.54,16.73,9.84,17.32S592.45,393.15,592.45,393.15Z"/><path class="cls-18" d="M632.21,441.76,622,528.34l2.08,67.12,12.88-.92s3.64-35.3,3.93-44.16S638.5,528,638.5,528l13-53.53,2.16.4.59,52.73,11.84,67,10.82.52s.27-34.55-.62-43.11-5.51-25.68-5.51-25.68l4.73-54.6s4.72-14.37-3.74-30.5C670.68,441.26,632.21,441.76,632.21,441.76Z"/><path class="cls-33" d="M641.85,359.3s-18.3,5.91-21.65,9.25-12.94,37.83-12.94,37.83L592.8,391.89l-4.48,10.51s16.93,25.19,22.24,26,17.32-31.87,17.32-31.87S629,414.34,631,423.26a55.73,55.73,0,0,1,1.19,18.5c16.37,3,30.3,2.36,39.55-.59l4.58-34.38s6.24.73,8.21-1.44-7.08-37.78-9-40.54-18.38-5.57-18.38-5.57Z"/><path class="cls-32" d="M659.67,382.94c-.1-.7-1.25-.53-1.23.17A224.3,224.3,0,0,1,656.17,427c-.16,1,1.3,1.43,1.52.42A127.77,127.77,0,0,0,659.67,382.94Z"/><path class="cls-32" d="M676.46,393.9c-.1-.49-.85-.36-.86.12a145.6,145.6,0,0,1-2.86,25.39c-1.46,7.54-2.79,15.1-2.3,22.81.07,1.08,1.74,1.09,1.69,0-.37-8.91,1.44-17.51,3.06-26.22C676.53,408.77,677.92,401.22,676.46,393.9Z"/><path class="cls-32" d="M629.55,393.64c-4.91,3.12-6.76,9.23-8.64,14.43-2.54,7-5.09,13.95-10.63,19.23-.82.79.41,2,1.25,1.25,10.23-9.21,9.74-24.27,18.47-34.34C630.26,393.91,629.92,393.4,629.55,393.64Z"/><path class="cls-30" d="M672,438.61s-24.8,3.15-39.75-1.58c.39,0,0,4.73,0,4.73a75.14,75.14,0,0,0,40.93,1.57C673,443.26,672,438.61,672,438.61Z"/><path class="cls-34" d="M415.39,539.39s-2.05,4.48-5.59,5.22-12.88,2.8-14.37,4.11-1.49,4.66-1.49,4.66h29.61s-.05-9-1.77-13.62C422.48,539.76,415.39,539.39,415.39,539.39Z"/><path class="cls-34" d="M472.49,539.39s-2.06,4.48-5.6,5.22-12.87,2.8-14.37,4.11-1.49,4.66-1.49,4.66h29.61s-.05-9-1.77-13.62C479.58,539.76,472.49,539.39,472.49,539.39Z"/><path class="cls-35" d="M468.86,248.36s-8.25-2.1-8.75-.79,12.75,5.23,12.75,5.23l11.93,33.08-4.47,10.58,8.21,9s9-12.13,9.7-15.68S477,250.56,477,250.56s-4.36-13.88-5-14.55-8.56-.25-10.34-.22,5.19,7.1,5.19,7.1Z"/><path class="cls-35" d="M436.77,272.85s-3.93,5.51-4.77,11.39a38.33,38.33,0,0,0,.28,11.47l7.21-.23v6.74h14.34a75,75,0,0,1,.84-7.91c.56-2.79,4.48-8.11,4.48-8.11L452.71,268l-9.24-.84Z"/><path class="cls-18" d="M440.4,281.44s2.51-5.88,5.59-3.64-.84,7-.84,7,2,8.12,5.32,9.24l3.36,1.11S462.5,287,463.9,284.8s-2.23-15.11-4.75-17.91-13.44-2.52-14.28-3.92-3.64-3.92-6.43-2.8-2.24,10.36-2.24,10.36,3.46,3,3.69,5.12-1.38,5-1.38,5Z"/><path class="cls-18" d="M426.84,302.65s14.3-2.08,22.51-2.27,21.27,4.1,21.27,4.1l9.51-10.17,12.1,11.38s-10.3,15.21-13.62,18.75-5.75,20.16-6.5,25.2-2.61,34.51-2.61,34.51-8.77,10.45-44.78-.93c-.37-.37,1.5-21.64,1.31-26.87s-4.85-23-5.79-27.24-15.8-12.88-15.8-12.88-1.84-10.45,5-15.48C410.36,301.31,426.84,302.65,426.84,302.65Z"/><path class="cls-35" d="M393.56,259.89s-5.41,5-5.78,7.09,7.44,25.43,7.44,25.43l14.24,8.34-5,15.48s-15.54-10.81-17.78-14-6.16-34.89-6.16-34.89-5-6.34-5.41-8-1.54-7.17-.68-8.25,6.64-7.05,7.49-5.28,4,14.7,4,14.7S392.26,257.65,393.56,259.89Z"/><path class="cls-13" d="M424.72,383.22l-8.11,76.5-4.2,81.16,14,.56s8.68-53.85,8.82-62.05-.14-18-.14-18L444,420.54h5l10.36,53.17,10.63,66.05,11.2.56s1.68-41.14,0-49.54-4.2-16.51-4.2-16.51l-5-55.13s4.48-19.59-2.52-35C468.1,381.35,424.72,383.22,424.72,383.22Z"/><polygon class="cls-24" points="339.22 296.2 330.13 296.2 330.13 287.1 324.45 287.1 324.45 296.2 315.36 296.2 315.36 301.87 324.45 301.87 324.45 310.97 330.13 310.97 330.13 301.87 339.22 301.87 339.22 296.2"/><path class="cls-8" d="M254.56,366.39a14.23,14.23,0,1,1,14.22-14.22A14.24,14.24,0,0,1,254.56,366.39Zm0-21a6.8,6.8,0,1,0,6.8,6.8A6.81,6.81,0,0,0,254.56,345.37Z"/><polygon class="cls-8" points="691.86 235.74 682.76 235.74 682.76 226.65 677.09 226.65 677.09 235.74 667.99 235.74 667.99 241.42 677.09 241.42 677.09 250.51 682.76 250.51 682.76 241.42 691.86 241.42 691.86 235.74"/><path class="cls-9" d="M646.4,173.67a5.62,5.62,0,1,1-5.62-5.63A5.62,5.62,0,0,1,646.4,173.67Z"/><path class="cls-20" d="M536.67,272.35a14.22,14.22,0,1,1,14.22-14.22A14.24,14.24,0,0,1,536.67,272.35Zm0-21a6.8,6.8,0,1,0,6.8,6.8A6.81,6.81,0,0,0,536.67,251.33Z"/><path class="cls-20" d="M612.24,178.31a14.22,14.22,0,1,1,14.22-14.22A14.24,14.24,0,0,1,612.24,178.31Zm0-21a6.8,6.8,0,1,0,6.79,6.8A6.81,6.81,0,0,0,612.24,157.29Z"/></svg>